<?xml version="1.0" encoding="utf-8"?>
<!-- Generator: Adobe Illustrator 23.1.0, SVG Export Plug-In . SVG Version: 6.00 Build 0)  -->
<svg version="1.1" id="Layer_1" xmlns="http://www.w3.org/2000/svg" xmlns:xlink="http://www.w3.org/1999/xlink" x="0px" y="0px"
	 viewBox="0 0 947.02 532.7" style="enable-background:new 0 0 947.02 532.7;" xml:space="preserve">
<style type="text/css">
	.st0{fill:none;stroke:#FFFFFF;stroke-width:1.8929;stroke-miterlimit:10;}
	.st1{fill:#FFFFFF;}
</style>
<g>
	<g>
		<rect x="32.02" y="65.54" class="st0" width="882.98" height="401.62"/>
		<path class="st0" d="M916.89,469.05H30.13V63.65h886.76V469.05z M33.91,465.27h879.19V67.43H33.91V465.27z"/>
	</g>
	<g>
		<path class="st1" d="M117.18,328.06h26.71c25.4,0,36.58,18.14,36.58,34.36c0,17.64-13.81,34.36-36.48,34.36h-26.81V328.06z
			 M127.06,387.92h15.72c22.37,0,27.51-17.03,27.51-25.5c0-13.81-8.77-25.5-28.02-25.5h-15.22V387.92z"/>
		<path class="st1" d="M231.65,336.93h-29.12v20.76h28.12v8.87h-28.12v21.36h30.03v8.87h-39.91v-68.73h39V336.93z"/>
		<path class="st1" d="M275.68,343.18c-5.84-5.54-11.49-7.15-16.12-7.15c-6.35,0-10.88,3.33-10.88,8.16c0,13.2,29.73,13,29.73,34.87
			c0,10.78-8.16,18.64-19.25,18.64c-7.46,0-13.5-2.01-19.25-6.35v-12.5c5.04,6.45,11.39,9.98,18.14,9.98
			c7.66,0,11.19-4.84,11.19-8.67c0-14.21-29.73-15.82-29.73-34.67c0-11.19,8.26-18.34,20.86-18.34c5.24,0,10.48,1.61,15.32,4.84
			V343.18z"/>
		<path class="st1" d="M299.16,396.79h-9.88v-68.73h9.88V396.79z"/>
		<path class="st1" d="M374.64,392.05c-9.17,4.03-16.63,5.64-26.2,5.64c-21.06,0-36.58-14.71-36.58-34.87
			c0-20.26,15.92-35.67,36.88-35.67c8.06,0,13.71,1.31,24.49,5.85v9.98c-8.06-4.43-16.43-6.75-24.69-6.75
			c-14.91,0-26.5,11.39-26.5,26.3c0,15.32,11.49,26.1,27.81,26.1c5.34,0,10.18-1.21,14.91-2.72V371.8h-13.2v-8.87h23.08V392.05z"/>
		<path class="st1" d="M452.52,396.79h-8.47l-45.95-52.91v52.91h-9.27v-68.73h7.86l46.56,53.21v-53.21h9.27V396.79z"/>
		<path class="st1" d="M495.74,328.06h26.71c25.4,0,36.58,18.14,36.58,34.36c0,17.64-13.81,34.36-36.48,34.36h-26.81V328.06z
			 M505.62,387.92h15.72c22.37,0,27.51-17.03,27.51-25.5c0-13.81-8.77-25.5-28.01-25.5h-15.22V387.92z"/>
		<path class="st1" d="M629.46,396.79h-9.88v-29.93h-38.5v29.93h-9.87v-68.73h9.87v29.93h38.5v-29.93h9.88V396.79z"/>
		<path class="st1" d="M704.33,396.79h-10.08l-9.17-20.26h-29.22l-8.67,20.26h-10.08l29.53-69.13h6.95L704.33,396.79z
			 M659.69,367.66h21.36l-11.09-24.89L659.69,367.66z"/>
		<path class="st1" d="M768.11,392.05c-9.17,4.03-16.63,5.64-26.2,5.64c-21.06,0-36.58-14.71-36.58-34.87
			c0-20.26,15.92-35.67,36.88-35.67c8.06,0,13.71,1.31,24.49,5.85v9.98c-8.06-4.43-16.43-6.75-24.69-6.75
			c-14.91,0-26.5,11.39-26.5,26.3c0,15.32,11.49,26.1,27.81,26.1c5.34,0,10.18-1.21,14.91-2.72V371.8h-13.2v-8.87h23.08V392.05z"/>
		<path class="st1" d="M842.07,396.79h-10.08l-9.17-20.26H793.6l-8.67,20.26h-10.08l29.53-69.13h6.95L842.07,396.79z M797.43,367.66
			h21.36l-11.09-24.89L797.43,367.66z"/>
	</g>
	<g>
		<path class="st1" d="M106.16,159.03l-1.13-13.21h44.07l0.99,13.21H106.16z M118.8,235.94v-81.5h17.59v81.5H118.8z M179.68,112.94
			c6.07,1.11,11.81,2.7,17.2,4.77c5.39,2.07,10.32,4.52,14.8,7.35l2.19,16.1l-0.49,0.14c-8.33-5.18-16.79-9.09-25.35-11.72
			c-8.57-2.64-17.23-3.95-25.99-3.95c-8.9,0-15.43,1.65-19.6,4.94c-4.17,3.3-6.25,8.1-6.25,14.41v3.53h-17.16v-4.17
			c0-10.69,3.39-18.87,10.17-24.54c6.78-5.67,17.26-8.51,31.43-8.51C167.25,111.28,173.61,111.84,179.68,112.94z"/>
		<path class="st1" d="M145.07,159.03l-0.99-13.21h83.55l1.06,13.21H145.07z M168.31,222.09c5.32,1.55,10.78,2.33,16.39,2.33
			c4.61,0,8.2-0.31,10.77-0.92c2.57-0.61,4.38-1.55,5.44-2.82c1.06-1.27,1.59-2.87,1.59-4.8v-0.42c0-1.65-0.38-3.07-1.13-4.27
			c-0.75-1.2-2.05-2.13-3.88-2.79c-1.84-0.66-4.4-0.99-7.7-0.99c-3.63,0-7.13,0.35-10.52,1.06s-6.73,1.67-10.03,2.9
			c-4.9-2.17-8.68-4.98-11.34-8.44c-2.66-3.46-3.99-7.62-3.99-12.46v-0.57c0-4.33,1.02-8.09,3.07-11.26
			c2.05-3.18,5.39-5.61,10.03-7.31c4.64-1.7,10.79-2.54,18.47-2.54c5.27,0,10.24,0.25,14.9,0.74c4.66,0.49,9.44,1.17,14.34,2.01
			v11.86c-4.05-0.56-8.08-0.99-12.08-1.27c-4-0.28-8.1-0.42-12.29-0.42c-4.85,0-8.65,0.34-11.41,1.02
			c-2.75,0.68-4.71,1.67-5.86,2.97c-1.15,1.29-1.73,2.86-1.73,4.7v0.35c0,1.27,0.25,2.41,0.74,3.43c0.49,1.01,1.24,1.9,2.22,2.65
			c2.92-0.89,5.9-1.59,8.93-2.08c3.04-0.49,6.39-0.74,10.06-0.74c6.4,0,11.56,0.86,15.47,2.58c3.91,1.72,6.76,4.17,8.55,7.35
			c1.79,3.18,2.68,6.96,2.68,11.34v0.85c0,4.76-1.06,8.79-3.18,12.11c-2.12,3.32-5.6,5.84-10.45,7.56
			c-4.85,1.72-11.35,2.58-19.49,2.58c-6.64,0-12.7-0.61-18.19-1.84c-5.49-1.22-10.32-2.99-14.51-5.3l-1.13-15.54
			C157.9,218.4,162.99,220.54,168.31,222.09z M190.42,145.82h35.88l0.99,13.21h-35.81L190.42,145.82z M214.71,154.79v28.25
			c-0.75-0.14-1.91-0.39-3.46-0.74c-1.55-0.35-3.24-0.73-5.05-1.13c-1.81-0.4-3.51-0.78-5.09-1.13s-2.74-0.6-3.5-0.74v-24.51H214.71
			z M214.64,169.41l-16.88-0.07v-14.9h16.88V169.41z"/>
		<path class="st1" d="M224.95,159.03l-0.99-13.21h98.1l0.92,13.21H224.95z M271.7,189.04c4.28,1.55,7.38,3.77,9.29,6.64
			c1.91,2.87,2.86,6.62,2.86,11.23v0.92c0,7.44-2.29,13.14-6.89,17.09c-4.59,3.95-11.57,5.93-20.94,5.93
			c-5.04,0-9.5-0.55-13.38-1.66c-3.88-1.11-7.29-2.58-10.21-4.41l-0.92-15.75c3.2,2.26,6.56,4.03,10.06,5.3
			c3.51,1.27,7.14,1.91,10.91,1.91c4.52,0,7.85-1.06,9.99-3.18c2.14-2.12,3.21-5.3,3.21-9.53v-0.99c0-3.15-0.47-5.72-1.41-7.7
			c-0.94-1.98-2.54-3.46-4.8-4.45c-2.26-0.99-5.32-1.58-9.18-1.77l-10.17-0.42v-4.03h31.57V189.04z M304.54,188.69H281.8
			l-18.22-0.49h-23.45v-13.56h64.41V188.69z M292.47,145.82h36.65l0.92,13.21h-36.58L292.47,145.82z M316.34,235.94h-17.51v-81.5
			h17.51V235.94z"/>
		<path class="st1" d="M285.62,253.21c-1.65-1.77-2.47-4.16-2.47-7.17c0-0.05,0-0.12,0-0.21c0-0.1,0-0.19,0-0.28
			c0-3.06,0.82-5.46,2.47-7.2c1.65-1.74,4.12-2.61,7.42-2.61c3.3,0,5.76,0.88,7.38,2.65c1.62,1.77,2.44,4.15,2.44,7.17
			c0,0.05,0,0.13,0,0.25c0,0.12,0,0.2,0,0.25c0,3.01-0.81,5.4-2.44,7.17c-1.62,1.77-4.08,2.65-7.38,2.65
			C289.74,255.85,287.26,254.97,285.62,253.21z"/>
		<path class="st1" d="M324.81,159.03l-1.13-13.21h44.07l0.99,13.21H324.81z M337.45,235.94v-81.5h17.59v81.5H337.45z"/>
		<path class="st1" d="M363.73,159.03l-0.99-13.21h83.55l1.06,13.21H363.73z M381.7,220.36c3.46,1.3,6.99,2.3,10.59,3
			c3.6,0.71,7.29,1.06,11.05,1.06c4.61,0,8.2-0.31,10.77-0.92c2.57-0.61,4.38-1.55,5.44-2.82s1.59-2.87,1.59-4.8v-0.42
			c0-2.49-0.89-4.46-2.68-5.9c-1.79-1.44-5.11-2.15-9.96-2.15c-3.67,0-7.2,0.35-10.59,1.06c-3.39,0.71-6.76,1.67-10.1,2.9
			c-4.85-2.17-8.61-4.97-11.27-8.4c-2.66-3.44-3.99-7.63-3.99-12.57v-0.56c0-4.38,1.02-8.13,3.07-11.26
			c2.05-3.13,5.39-5.54,10.03-7.24c4.64-1.7,10.79-2.54,18.47-2.54c5.27,0,10.24,0.25,14.9,0.74c4.66,0.49,9.44,1.17,14.34,2.01
			v11.86c-4.05-0.56-8.08-0.99-12.08-1.27c-4-0.28-8.1-0.42-12.29-0.42c-4.85,0-8.65,0.34-11.41,1.02
			c-2.75,0.68-4.71,1.67-5.86,2.97c-1.15,1.29-1.73,2.86-1.73,4.7v0.35c0,1.27,0.25,2.41,0.74,3.43c0.49,1.01,1.24,1.9,2.22,2.65
			c2.97-0.89,5.96-1.59,8.97-2.08c3.01-0.49,6.38-0.74,10.1-0.74c6.36,0,11.49,0.86,15.4,2.58c3.91,1.72,6.76,4.17,8.55,7.35
			c1.79,3.18,2.68,6.96,2.68,11.34v0.85c0,4.8-1.06,8.85-3.18,12.15c-2.12,3.3-5.57,5.8-10.35,7.52
			c-4.78,1.72-11.17,2.58-19.17,2.58c-3.39,0-6.75-0.35-10.06-1.06c-3.32-0.71-6.37-1.46-9.15-2.26l-13.91-3.46l-1.13-15.89
			C374.91,217.5,378.24,219.07,381.7,220.36z M403.77,261.79l-19.42-25.71l-11.51-4.52l26.63,3.04v3.46
			c2.4,1.37,4.53,2.71,6.39,4.03c1.86,1.32,3.59,2.74,5.19,4.27c1.6,1.53,3.25,3.26,4.94,5.19l8.19,9.39v0.85H403.77z
			 M409.07,145.82h35.88l0.99,13.21h-35.88L409.07,145.82z M433.36,155.28v27.61l-17.09-3.74v-23.87H433.36z M433.29,169.41
			l-16.95-0.07v-14.9h16.95V169.41z"/>
		<path class="st1" d="M441.7,159.03l-0.99-13.21h82.7l0.99,13.21H441.7z M454.16,208.89c-1.2-3.44-2.2-7.04-3-10.81
			c-0.8-3.77-1.39-7.81-1.77-12.15l8.62-5.93h15.18v38.98h-14.9C456.74,215.69,455.36,212.33,454.16,208.89z M507.16,194.27h-40.4
			V180h40.4V194.27z M493.82,145.82h36.65l0.99,13.21h-36.65L493.82,145.82z M517.69,235.94h-17.51v-81.5h17.51V235.94z"/>
		<path class="st1" d="M566.91,197.59c1.22-2.35,3.3-4.22,6.22-5.61c2.92-1.39,6.92-2.25,12.01-2.58v-0.56
			c-5.13-0.61-9.32-1.73-12.57-3.36c-3.25-1.62-5.64-3.87-7.17-6.74c-1.53-2.87-2.3-6.47-2.3-10.81v-1.2
			c0-7.44,2.16-13.11,6.46-17.02c4.31-3.91,10.91-5.86,19.81-5.86c8.66,0,14.98,1.76,18.96,5.26c3.98,3.51,5.97,8.51,5.97,15.01
			c0,1.51-0.11,3.05-0.32,4.63c-0.21,1.58-0.51,3.1-0.88,4.55h-14.9v-5.51c0-3.77-0.71-6.4-2.12-7.91c-1.41-1.51-3.6-2.26-6.57-2.26
			c-3.15,0-5.48,0.84-6.99,2.51c-1.51,1.67-2.26,4.32-2.26,7.95v1.2c0,3.11,0.6,5.59,1.8,7.45c1.2,1.86,3.21,3.21,6.04,4.06
			c2.82,0.85,6.66,1.37,11.51,1.55l11.23,0.42v13.42l-11.73,0.28c-3.15,0.05-5.77,0.24-7.84,0.56c-2.07,0.33-3.7,0.8-4.87,1.41
			c-1.18,0.61-2.01,1.38-2.51,2.3c-0.49,0.92-0.74,1.99-0.74,3.21v0.57c0,1.74,0.64,3.22,1.91,4.45c1.27,1.22,3.4,2.15,6.39,2.79
			c2.99,0.64,7.1,0.95,12.32,0.95c7.11,0,12.72-0.92,16.84-2.75c4.12-1.84,6.91-4.83,8.37-8.97l0.78,12.5h-1.98
			c-1.04,3.01-2.73,5.56-5.09,7.63c-2.36,2.07-5.45,3.65-9.29,4.73c-3.84,1.08-8.51,1.62-14.02,1.62c-11.63,0-20.26-1.77-25.88-5.3
			c-5.63-3.53-8.44-8.71-8.44-15.54v-0.71C565.07,202.72,565.69,199.94,566.91,197.59z M620.37,145.82h34.18l0.92,13.21h-34.04
			L620.37,145.82z M622.28,145.82h36.65l0.99,13.21h-36.65L622.28,145.82z M646.15,235.94h-17.51v-81.5h17.51V235.94z"/>
		<path class="st1" d="M654.63,159.03l-1.13-13.21h44.07l0.99,13.21H654.63z M667.27,235.94v-81.5h17.59v81.5H667.27z"/>
		<path class="st1" d="M692.34,145.82h86.94l0.99,13.21h-87.01L692.34,145.82z M734.26,167.5c1.11,4.24,1.66,9.32,1.66,15.26v2.12
			c0,7.3-1.02,13.25-3.07,17.87c-2.05,4.61-5.07,7.99-9.07,10.13c-4,2.14-8.92,3.21-14.76,3.21c-1.74,0-3.4-0.09-4.98-0.28
			c-1.58-0.19-3-0.52-4.27-0.99l-1.06-15.33c0.85,0.14,1.73,0.27,2.65,0.39c0.92,0.12,1.87,0.18,2.86,0.18
			c3.01,0,5.53-0.55,7.56-1.66c2.02-1.11,3.53-2.94,4.52-5.51c0.99-2.57,1.48-6.01,1.48-10.35v-1.91c0-5.46-0.59-10.09-1.77-13.88
			c-1.18-3.79-3.3-6.96-6.36-9.5h18.86C731.23,159.85,733.15,163.26,734.26,167.5z M747.78,145.82h36.65l0.99,13.21h-36.65
			L747.78,145.82z M771.72,235.94h-17.59v-81.5h17.59V235.94z"/>
		<path class="st1" d="M780.13,159.03L779,145.82h44.07l0.99,13.21H780.13z M792.77,235.94v-81.5h17.59v81.5H792.77z"/>
	</g>
	<rect x="109.52" y="287.11" class="st1" width="724.38" height="3.79"/>
</g>
</svg>
