<svg id="Layer_1" data-name="Layer 1" xmlns="http://www.w3.org/2000/svg" viewBox="0 0 30 25"><title>Dupatta indvidual logo</title><path d="M17.92,17.36l3.33.68,0-.07c-1.14-.48-2.3-.92-3.42-1.45a5.61,5.61,0,0,1-1.21-.92A7.12,7.12,0,0,0,12.67,14a17,17,0,0,1-3.15-.76,1.25,1.25,0,0,1-.89-1.45c.15-.68.66-.9,1.28-1a8.86,8.86,0,0,1,3.76.26,6.22,6.22,0,0,0,3.34.31,2.19,2.19,0,0,0,.84-.38l-1.05.09a2.33,2.33,0,0,1,1.57-1.76c1.06-.38,2.06-.94,3.13-1.44.47.7.95,1.36,1.38,2.06a13.49,13.49,0,0,0,6.3,5.45A1.22,1.22,0,0,1,30,16.91a6.34,6.34,0,0,1-3.25,4.56.78.78,0,0,1-1-.11,7.79,7.79,0,0,0-4.57-2.11A4.93,4.93,0,0,1,17.92,17.36Z"/><path d="M20.13,5.91,15.16,8l.3-1c-1,.79-2.68.71-3.07-.19A3,3,0,0,1,10.77,8.8c-.06,0-.21-.09-.31-.13A3.13,3.13,0,0,1,8,11.33c-.56.06-.82-.28-.64-.81A18.25,18.25,0,0,1,11,4.63a1.35,1.35,0,0,1,.87-.37c.68,0,1.37.07,2.06.12,1.42.09,2.83.2,4.25.28A2,2,0,0,1,20.13,5.91Z"/><path d="M28.85,3.54a4.4,4.4,0,0,1-.69.53c-1.93,1-3.85,2-5.82,3-2.57,1.22-5.16,2.37-7.76,3.53a1.85,1.85,0,0,1-.94,0c-.82-.12-1.63-.28-2.55-.45,1.42-.61,2.77-1.22,4.14-1.77,3.85-1.55,7.7-3.1,11.56-4.62C28,3.31,28.26,3.31,28.85,3.54Z"/><path d="M0,15.36A3.37,3.37,0,0,0,2.28,14a2.87,2.87,0,0,1,1.16-.82c.46-.16,1.09-.4,1.43.2.59,1,.5,1.46-.28,2A4.2,4.2,0,0,1,0,15.36Z"/><path d="M11.29,14.32c1.52-.1,2.09.38,2.09,1.76A1.5,1.5,0,0,1,13,17a.57.57,0,0,1-1-.09,6.37,6.37,0,0,1-.84-1.34A3.37,3.37,0,0,1,11.29,14.32Z"/><path d="M8.14,11.55l.38,1.59c-.8.31-1.65.68-2.53.93-.16,0-.52-.3-.66-.54a.64.64,0,0,1,.12-.63C6.32,12.42,7.22,12,8.14,11.55Z"/><path d="M8.91,13.46l2.1.77a2.19,2.19,0,0,1-.86,1.61C9.51,16.25,9,16,9,15.27,9,14.7,8.94,14.12,8.91,13.46Z"/><path d="M13.38,14.45c.27.08.71.08.86.29a8.26,8.26,0,0,1,1,2c.15.41-.11.83-.7.77a1,1,0,0,1-.93-1A20.12,20.12,0,0,0,13.38,14.45Z"/><path d="M10.46,9.9A6.09,6.09,0,0,1,11,9.19c.49-.51.92-1.19,1.53-1.43a4.91,4.91,0,0,1,2,.1,1.57,1.57,0,0,1,.23,0l.06.19L10.56,10Z"/><path d="M15,10.87l1.72-.82C16.53,11.07,16.21,11.23,15,10.87Z"/></svg>