<svg id="Layer_1" data-name="Layer 1" xmlns="http://www.w3.org/2000/svg" viewBox="0 0 30 25"><title>Dupatta indvidual logo</title><path d="M28.77,6.16l0,.23L0,10.51l0-.23.88-.13,2-.28c.1,0,.11-.08.13-.16A11.49,11.49,0,0,1,4.24,6.52,12.15,12.15,0,0,1,12.6.42a11,11,0,0,1,3.34-.2,12.21,12.21,0,0,1,9.42,5.62c.13.2.26.42.37.63a.18.18,0,0,0,.2.1L28,6.27Zm-4.16.59A11.19,11.19,0,0,0,12,1.7,11,11,0,0,0,5.71,6.22,10.78,10.78,0,0,0,4.15,9.67h.08L8.86,9a.38.38,0,0,0,.3-.2,6.79,6.79,0,0,1,6.68-3.16,6.66,6.66,0,0,1,3.77,1.7.35.35,0,0,0,.24.08c.32,0,.64-.09,1-.13l2.51-.36Zm-5.74.83a6.22,6.22,0,0,0-9,1.28Zm6.22-.91A11.62,11.62,0,0,0,12.6,1.08,11.4,11.4,0,0,0,5.88,5.21,11.57,11.57,0,0,0,3.66,9.74c.33,0,.34,0,.41-.27A11.32,11.32,0,0,1,17,1.35a11.19,11.19,0,0,1,7.59,5.13c.2.31.08.26.46.21C25.07,6.68,25.08,6.68,25.09,6.67ZM9.49,8.9c.24,0,.26,0,.38-.16a6.26,6.26,0,0,1,5-2.6,6.14,6.14,0,0,1,4,1.32.41.41,0,0,0,.4,0A6.54,6.54,0,0,0,9.49,8.9Z"/><path d="M1.22,18.84l0-.23L30,14.49l.05.23-.84.13-2,.28c-.1,0-.12.07-.14.15a12.33,12.33,0,0,1-9.51,9.28A12.28,12.28,0,0,1,4.32,18.64c-.13-.22-.13-.22-.37-.18l-2.65.38Zm4.17-.59a11.16,11.16,0,0,0,12,5.21,10.92,10.92,0,0,0,6.39-4,11,11,0,0,0,2.07-4.15l-.72.1-4,.58a.28.28,0,0,0-.23.15,4.49,4.49,0,0,1-.4.57,6.78,6.78,0,0,1-6.53,2.61,6.63,6.63,0,0,1-3.54-1.67.36.36,0,0,0-.24-.09c-.25,0-.49.07-.74.1l-2.94.42Zm14.7-2.11-9,1.29A6.24,6.24,0,0,0,20.09,16.14Zm6.23-.87c-.28,0-.33,0-.39.24A11.33,11.33,0,0,1,13,23.66a11.15,11.15,0,0,1-7.6-5.14c-.16-.26-.16-.26-.45-.2h0a11.64,11.64,0,0,0,21.41-3.06ZM10.72,17.5a6.53,6.53,0,0,0,9.77-1.4.36.36,0,0,0-.36.15,6.35,6.35,0,0,1-9,1.31A.42.42,0,0,0,10.72,17.5Z"/><path d="M13.26,15.89c-.27,0-.54.06-.79.12s-.25,0-.33-.18c-.55-1.14-1.11-2.28-1.67-3.42l-.07-.15h0l.56,3.95-.93.14L9.08,10c.34,0,.66-.1,1-.13,0,0,.11.06.13.11.36.77.71,1.55,1.07,2.32.22.47.44.95.65,1.42a.28.28,0,0,0,.1.12l-.6-4.17.93-.14Z"/><path d="M13.21,9.45c.53-.08,1-.16,1.54-.22a1.52,1.52,0,0,1,1.66,1.39c.12,1,.28,2,.43,3A1.73,1.73,0,0,1,16.58,15a1.49,1.49,0,0,1-1,.6l-1.29.19c-.11,0-.15,0-.16-.13-.23-1.64-.47-3.28-.71-4.91L13.22,9.6A.71.71,0,0,1,13.21,9.45Zm1.06.82.63,4.43.57-.08A.54.54,0,0,0,16,14c0-.15,0-.31-.06-.46-.14-1-.27-1.92-.41-2.88a.56.56,0,0,0-.58-.48Z"/><path d="M19.73,15v-.86l.09-3.59.06-1.89c0-.1,0-.13.14-.15l1-.14a.18.18,0,0,1,.24.14q.92,2.92,1.85,5.85a.83.83,0,0,1,0,.15l-1,.14c-.08-.27-.17-.54-.25-.81s-.1-.34-.16-.5a.16.16,0,0,0-.12-.09c-.3,0-.6.08-.93.13v1.48Zm1-5h0v2.47l.71-.11Z"/><path d="M18.9,15.07,18,15.2l-.91-6.31L18,8.75Z"/><path d="M7.27,10.29l.94-.13.9,6.31-.93.14Z"/><path d="M8,4.79l.45-.34L9.9,5.73l0,0L9.1,4l.43-.33,1.6,2.15-.3.23L9.88,4.78l0,0c.08.18.16.36.25.54s.24.53.37.79c0,.08.07.15,0,.22s-.16.11-.27,0c-.32-.29-.66-.56-1-.84A.45.45,0,0,0,9,5.42L10,6.7l-.31.24Z"/><path d="M17.57,5.26l-.36-.14,1-2.5a2.83,2.83,0,0,1,.35.14.16.16,0,0,1,.05.14c0,.44-.07.88-.11,1.32a1,1,0,0,0,0,.33L19.12,3l.37.14-1,2.48h0c-.36-.13-.36-.13-.34-.51s.05-.77.07-1.16a.25.25,0,0,0,0-.16Z"/><path d="M12.91,5.09l-.52-2.63a7.11,7.11,0,0,1,.76-.13.63.63,0,0,1,.61.5c.09.47.19.95.27,1.42a.62.62,0,0,1-.41.7l-.17,0Zm0-2.28.33,1.71s0,.1.07.1a.31.31,0,0,0,.37-.38c-.08-.39-.17-.79-.23-1.19S13.19,2.66,12.87,2.81Z"/><path d="M12.68,5.16l-.38.16c-.09-.15-.18-.28-.26-.43a.13.13,0,0,0-.19-.06c-.27.12-.27.12-.21.4s.08.35-.26.48h0l-.62-2.64.5-.21ZM11.27,3.63l0,0,.25.92.28-.12Z"/><path d="M14.42,2.18h1.11v.36h-.59c-.11,0-.16,0-.15.15s0,.39,0,.62h.55v.38c-.13,0-.27,0-.4,0s-.15,0-.15.14,0,.4,0,.62h.73v.38H14.42Z"/><path d="M17.13,2.36l.38.08L16.92,5h-.06c-.34,0-.34,0-.26-.39.17-.73.33-1.46.5-2.2A.46.46,0,0,0,17.13,2.36Z"/><path d="M21.09,5.46a.3.3,0,0,1-.29.29.28.28,0,0,1-.27-.28.28.28,0,0,1,.27-.3A.29.29,0,0,1,21.09,5.46Z"/><path d="M7.65,7.39a.29.29,0,0,1-.58,0,.29.29,0,0,1,.58,0Z"/><path d="M12.46,22.58l-.37-.14L12.61,21h0l-.44.71c-.1.17-.21.34-.31.52s-.09.14-.2.09-.2-.06-.17-.22c0-.32.08-.64.11-1a1.91,1.91,0,0,0,0-.48l-.53,1.45-.37-.14.91-2.52c.17.06.33.11.49.18a.14.14,0,0,1,0,.12c-.08.56-.17,1.11-.25,1.66a.16.16,0,0,0,0,.11l1-1.62.52.18Z"/><path d="M20.66,20l-1-1.38.31-.23,1.57,2.16-.33.25-1.4-1,0,0,1,1.33-.31.23-1.57-2.17.35-.26L20.63,20Z"/><path d="M15,20.2c.27,0,.53,0,.78,0a.59.59,0,0,1,.51.51c.05.5.1,1,.12,1.5a.59.59,0,0,1-.56.64l-.5,0c-.09,0-.13,0-.14-.12-.05-.65-.11-1.31-.16-2C15.06,20.59,15.05,20.41,15,20.2Zm.41.35.17,1.91.22,0c.17,0,.26-.11.24-.28,0-.47-.07-.93-.12-1.4a.22.22,0,0,0-.22-.21Z"/><path d="M13.17,22.7c.1-.33.19-.66.29-1l.42-1.48c0-.09,0-.13.16-.11l.42.05.15,2.69s0,0,0,0c-.42,0-.36.05-.39-.38s0-.29-.3-.31c-.11,0-.16,0-.18.13s0,.11,0,.16C13.56,22.82,13.56,22.82,13.17,22.7Zm1-.88v-.95h0l-.24.92Z"/><path d="M18.22,22.37l-1.11.3-.69-2.59,1.1-.3.1.38-.71.2a5.79,5.79,0,0,0,.17.63s.09.06.12.06l.42-.11.11.37-.53.16.19.71.72-.19Z"/><path d="M19.92,21.61l-.36.19-1.24-2.38.35-.19Z"/><path d="M22.87,17.85a.27.27,0,0,1-.28.28.28.28,0,0,1-.28-.29.27.27,0,0,1,.28-.27A.27.27,0,0,1,22.87,17.85Z"/><path d="M9.09,20.06a.27.27,0,0,1-.28-.28.27.27,0,0,1,.27-.28.28.28,0,0,1,.29.28A.27.27,0,0,1,9.09,20.06Z"/></svg>