<svg id="Layer_1" data-name="Layer 1" xmlns="http://www.w3.org/2000/svg" viewBox="0 0 30 25"><title>Dupatta indvidual logo</title><path d="M27.45,12.48A12.45,12.45,0,1,1,15,.05,12.47,12.47,0,0,1,27.45,12.48Zm-.18,0A12.27,12.27,0,1,0,15,24.77,12.3,12.3,0,0,0,27.27,12.52Z"/><path d="M27.05,12.53A12.05,12.05,0,1,1,15,.45,12,12,0,0,1,27.05,12.53Zm-.54,0A11.52,11.52,0,1,0,15.11,24,11.53,11.53,0,0,0,26.51,12.5Z"/><path d="M6.9,12.28a8.1,8.1,0,1,1,7.78,8.31A8.12,8.12,0,0,1,6.9,12.28Zm16,.23a7.9,7.9,0,1,0-8,7.89A7.91,7.91,0,0,0,22.9,12.51Z"/><path d="M5.61,17.59l1.66-1.15c.08.1.14.2.22.29a.25.25,0,0,1,0,.36c-.24.34-.46.69-.72,1.09l1-.22c.53-.12.53-.12.81.37L6.92,19.47l-.28-.4.89-.61,0-.05-.93.23c-.14,0-.23,0-.31-.1a.24.24,0,0,1,0-.35,4.65,4.65,0,0,0,.48-.78L5.89,18Z"/><path d="M6.58,7.68l.91.61-.28.4L5.56,7.59c.23-.52.23-.52.75-.41l1,.21L6.9,6.74l-.41-.6.31-.48L8.49,6.78l-.27.41-.88-.58,0,0,.52.72c.09.12.16.21.05.38s-.22.14-.37.11L6.6,7.63Z"/><path d="M24.87,8.57a.54.54,0,0,1-.08.77,4.41,4.41,0,0,0-.62.82l1.11-.32.14.46-1.91.58a.54.54,0,0,1,.06-.76,4.07,4.07,0,0,0,.64-.83l-1.1.32L23,9.15Z"/><path d="M23.37,14.44l.14-.47,1.92.55c0,.3-.09.51-.42.58a5.28,5.28,0,0,0-1,.38l1.09.32-.12.47L23,15.72c0-.3.08-.51.42-.58a11.5,11.5,0,0,0,1.11-.35Z"/><path d="M12.46,4.26l-.4-2c.33-.06.63-.14.93-.17a1,1,0,0,1,1,.8A1,1,0,0,1,13.44,4C13.13,4.13,12.8,4.18,12.46,4.26Zm.39-.53c.32,0,.6-.09.69-.41a.63.63,0,0,0-.21-.7.67.67,0,0,0-.71,0Z"/><path d="M17.77,22.79l-.7-1.93a7.31,7.31,0,0,1,1.08-.31,1,1,0,0,1,.54,1.87A8,8,0,0,1,17.77,22.79Zm-.08-1.67.39,1.08c.29-.06.59-.16.6-.46a.91.91,0,0,0-.22-.64C18.25,20.86,18,21,17.69,21.12Z"/><path d="M12.22,22.79l.37-2c.33.06.64.1.93.18a1,1,0,0,1-.3,2A10,10,0,0,1,12.22,22.79Zm.57-.36c.3.1.57.15.78-.1a.63.63,0,0,0,.1-.7.68.68,0,0,0-.67-.32Z"/><path d="M16.93,4.11l.67-1.95a9.31,9.31,0,0,1,1,.38A.91.91,0,0,1,19,3.68a.89.89,0,0,1-1,.71A8.76,8.76,0,0,1,16.93,4.11Zm.62-.28c.28.14.54.23.79,0a.62.62,0,0,0,.19-.69c-.09-.28-.34-.35-.61-.41Z"/><path d="M23.24,16.34a1.05,1.05,0,1,1,0,2.1,1.05,1.05,0,0,1-1-1A1.06,1.06,0,0,1,23.24,16.34Zm.6,1.09a.66.66,0,0,0-.62-.6.54.54,0,0,0-.56.54.66.66,0,0,0,.64.58A.53.53,0,0,0,23.84,17.43Z"/><path d="M24.22,7.47a1,1,0,0,1-1,1,1,1,0,1,1,1-1Zm-.45,0a.56.56,0,0,0-.52-.55.7.7,0,0,0-.67.61.56.56,0,0,0,.54.53A.68.68,0,0,0,23.77,7.44Z"/><path d="M12.11,4.38,11,4.89,10.16,3l1.12-.51.17.35-.67.32.15.36.61-.24.15.32-.6.28.18.41L12,4Z"/><path d="M15.57,1.89,16.79,2l0,.38L16,2.34l0,.39.64.09,0,.35-.66,0,0,.42.74.11L16.57,4,15.35,3.9Z"/><path d="M16.07,21.82l.65-.06.06.35-.64.1,0,.43.74-.07,0,.37-1.22.16-.26-2,1.22-.15.05.37-.72.11Z"/><path d="M12.25,20.66l-.16.35-.68-.27-.16.36.59.27-.13.34-.61-.25-.18.41.68.3-.14.35L10.32,22l.78-1.86Z"/><path d="M20.52,5.91l-.39-.29,1-1.29L20.73,4l.24-.3,1.22,1L22,5l-.43-.32Z"/><path d="M10.25,5.34l-.39.28L8.92,4.29l-.45.29-.22-.31,1.27-.9.23.31L9.32,4Z"/><path d="M21,18.65l.24.29-.4.36,1,1.26-.38.3-1-1.25-.41.32-.25-.29Z"/><path d="M9.24,21.41l-.41-.27.91-1.35-.43-.31.22-.32,1.29.88-.22.31-.45-.28Z"/><path d="M4.56,10.52l.12-.47,1.59.37.17-.6.35.06L6.53,11Z"/><path d="M5.09,15l.14.63-.35.09-.29-1.1,2-.5.12.47Z"/><path d="M23.1,19.35l-.32.37-1.52-1.35.33-.36Z"/><path d="M19.39,5.12,19,4.88l1-1.77.43.24Z"/><path d="M20.53,21.55l-.42.25-1-1.75.42-.25Z"/><path d="M7,15.57l.19.46L5.3,16.8l-.19-.44Z"/><path d="M7.7,4.81,9.18,6.19l-.3.28L7.42,5.11Z"/><path d="M7.89,20.37,7.53,20l1.39-1.47.36.34Z"/><path d="M21.5,6.88l-.34-.36,1.5-1.37.33.36Z"/><path d="M6.93,9.56,5.05,8.81l.18-.45,1.86.73Z"/><path d="M25.06,12.5a.46.46,0,0,1-.47.45.44.44,0,0,1-.45-.46A.46.46,0,0,1,24.6,12,.47.47,0,0,1,25.06,12.5Z"/><path d="M5.4,12a.46.46,0,0,1,0,.92.47.47,0,0,1-.46-.46A.46.46,0,0,1,5.4,12Z"/><path d="M15,20.2a7.7,7.7,0,1,1,7.72-7.7A7.7,7.7,0,0,1,15,20.2Zm0-.56a7.14,7.14,0,1,0-7.13-7.15A7.15,7.15,0,0,0,15,19.64Z"/><path d="M11.79,17.33c.14-.92.22-1.78.41-2.63a1.39,1.39,0,0,0-.49-1.55c-.6-.51-1.12-1.12-1.68-1.68l-.21-.24c1.09-.18,2.15-.36,3.2-.52a.57.57,0,0,0,.48-.34c.47-1,1-1.9,1.49-2.89l.17.29c.46.88.92,1.76,1.37,2.65a.46.46,0,0,0,.39.28l2.91.47.35.08-.3.31c-.68.69-1.36,1.37-2,2.07a.52.52,0,0,0-.13.39c.13,1,.28,2,.43,2.92,0,.11,0,.23.05.39l-1.75-.86c-.4-.2-.81-.4-1.21-.62a.46.46,0,0,0-.48,0c-.87.45-1.75.89-2.63,1.32Z"/></svg>