<?xml version="1.0" encoding="utf-8"?>
<!-- Generator: Adobe Illustrator 23.1.0, SVG Export Plug-In . SVG Version: 6.00 Build 0)  -->
<svg version="1.1" id="Layer_1" xmlns="http://www.w3.org/2000/svg" xmlns:xlink="http://www.w3.org/1999/xlink" x="0px" y="0px"
	 viewBox="0 0 1080 1080" style="enable-background:new 0 0 1080 1080;" xml:space="preserve">
<path d="M537.3,977c-5.8-0.8-11.6-1.4-17.4-2.4c-34.5-6-61.7-23.6-81.4-52.5c-10.1-14.8-22.9-26.3-39.2-33.7
	c-18.5-8.4-37.8-10.7-57.7-6.6c-66.3,13.5-131-29.8-144-96.3c-3.2-16.3-2.4-32.4,0.2-48.7c6.5-39.5-6.8-71.1-39.1-94.6
	c-7.8-5.7-15.5-11.4-22.1-18.5c-19.4-20.7-30.8-45.2-32.8-73.5c-3.3-47.3,15-84.7,53.6-111.8c21.9-15.4,35.9-35.6,40.8-61.9
	c2.3-12.2,1.6-24.4-0.7-36.6c-12.6-67,31.9-130.5,97.9-142.6c15.6-2.9,31.1-2.6,46.6,0.4c37.2,7.3,74.3-7.8,95.7-39.4
	c11.9-17.6,27-31.6,45.8-41.4c19.1-10,39.5-14.5,61-13.5c41.2,1.9,73.4,20.2,96.8,54c8.1,11.6,17.8,21.5,30,28.8
	c20.6,12.2,42.7,16.2,66.1,11.6c64.6-12.6,126.7,25.9,143.1,89.1c4.9,18.9,4.3,37.7,1.2,56.9c-6.3,39.1,7.2,70.7,39.4,93.6
	c16.2,11.6,29.9,25.1,39.7,42.5c7.7,13.7,12.5,28.3,14.6,43.8c0.6,4.1,0.7,8.3,1.1,12.5c0,2.2,0,4.5,0,6.7
	c-0.4,4.4-0.5,8.9-1.1,13.3c-1.9,14.1-6.1,27.5-12.7,40.1c-9.8,18.7-23.8,33.4-41,45.6c-32.6,23-46.2,54.7-40,94.2
	c2.6,16.2,3.6,32.2,0.7,48.3c-12.3,67.2-77.4,111.1-144.6,97.6c-16.8-3.4-33.3-2.2-49.5,3.5c-19.8,7-35.2,19.5-47,36.8
	c-19.8,29-47,46.7-81.7,52.7c-5.5,0.9-11,1.5-16.6,2.3C541.2,977,539.2,977,537.3,977z M847.2,319.2c-0.4-27.7-10.1-48.9-29-65.6
	c-19.1-16.8-41.4-23.7-66.7-20.4c-7.6,1-15.2,2.7-22.8,3.2c-32.6,2.1-62.2-6.5-88.4-26.2c-11.9-9-21.8-19.9-30.2-32.3
	c-24.3-36.3-68.5-45.7-103.6-30.9c-16.1,6.8-28.4,17.9-38.1,32.3c-29.5,43.6-81.5,65.1-133,55c-25.4-5-48.8-0.7-69.2,15.4
	c-25.9,20.4-37,47.2-32.6,80.1c1.1,8.4,2.9,16.9,3.2,25.3c1.1,30.7-7.5,58.5-25.8,83.1c-9.2,12.4-20.4,22.6-33.1,31.1
	c-37.5,25.2-45.7,71.2-29.6,106c6.8,14.7,17.3,26.2,30.7,35.2c43.8,29.6,65.2,80.4,55.7,132.3c-2.4,13.4-2.9,26.6,0.4,39.9
	c9.7,39.3,50.4,72.2,99.8,62.3c33.9-6.8,65.8-0.8,95.2,17.6c16,10,28.9,23.1,39.5,38.8c20,29.6,54.4,43.2,89.3,35.4
	c22.4-5,39.4-17.6,52.2-36.5c29.9-44.3,81.6-65.5,134-55.2c10.1,2,20.2,2.5,30.4,0.9c47.3-7.3,79.5-53.3,70-100.3
	c-3-14.8-3.6-29.6-1.5-44.6c4-28.3,16-52.7,35.9-73.2c6.8-7.1,14.5-13,22.6-18.6c28.6-19.7,42-53.4,34.9-87.3
	c-4.8-22.9-17.4-40.5-36.7-53.5c-44.5-30.1-65.9-82.4-55.4-134.8C846.5,328.2,846.8,322.5,847.2,319.2z"/>
<path d="M539.6,778.9c-131.6,0-238.7-107.3-238.9-239.1c-0.2-131.3,106.9-240.2,240.7-239.3c132.8,0.8,238.2,109.8,237.6,240.3
	C778.5,671.9,671.3,778.9,539.6,778.9z M741.7,539.9c0-110.9-90.3-201.5-200.4-202.1c-109-0.7-203.2,87.2-203.2,201.8
	c0,113.3,92.1,201,200.2,201.9C648.4,742.3,741.3,653.3,741.7,539.9z"/>
<path d="M501.4,573.9c1.4-1.2,2.5-2,3.5-3c38.4-33.8,76.7-67.5,115.1-101.3c1.4-1.2,2.7-2.4,4.1-3.6c8.1-6.8,19.3-6.2,25.9,1.4
	c6.7,7.7,6,18.8-1.8,25.9c-5.5,5-11.1,9.8-16.6,14.7c-39.2,34.5-78.4,69-117.6,103.5c-0.5,0.5-1,0.9-1.6,1.4
	c-8.6,7.4-19.3,6.7-26.8-1.7c-8.7-9.7-17.2-19.4-25.8-29.2c-9.8-11.1-19.6-22.2-29.5-33.2c-4.5-5-6.3-10.7-4.6-17.4
	c3.4-13.4,19.9-18.2,30-8.8c1.7,1.6,3.3,3.5,4.8,5.2c12.7,14.3,25.4,28.6,38.1,43C499.4,571.8,500.3,572.7,501.4,573.9z"/>
</svg>
