<svg id="Layer_1" data-name="Layer 1" xmlns="http://www.w3.org/2000/svg" viewBox="0 0 30 25"><title>Dupatta indvidual logo</title><path d="M4.46,16c-.65.07-1.26.14-1.87.18-.41,0-.62-.11-.63-.36s.19-.38.61-.42c.57,0,1.14-.12,1.71-.19.19,0,.28-.11.26-.31-.1-.75-.18-1.51-.27-2.26,0-.33-.08-.66-.12-1-.25,0-.5.07-.75.08s-.68,0-1,0A.37.37,0,0,1,2,11.43c0-.21.17-.37.42-.39C2.9,11,3.43,11,4,10.88a.34.34,0,0,0,.22-.2c.12-.75.24-1.5.32-2.26,0-.41,0-.83,0-1.24l-1.64.18a3.54,3.54,0,0,1-.46,0A.42.42,0,0,1,2,7a.44.44,0,0,1,.43-.4l1.77-.17c.25,0,.33-.12.27-.38a10.91,10.91,0,0,1-.24-3.24l-.71.08-.93,0C2.16,3,2,2.83,2,2.58s.19-.36.57-.39,1-.11,1.54-.17a.29.29,0,0,0,.3-.29c0-.53.12-1.06.16-1.59,0-.35.13-.51.38-.52s.42.17.4.53-.09,1-.14,1.46c0,.06,0,.13,0,.23h.3a9.22,9.22,0,0,1,2.82.21c.43.09.45.1.51-.32S8.92.64,9,.1c0-.33.13-.49.38-.48s.39.16.36.49c0,.56-.1,1.13-.15,1.69,0,.11,0,.22-.07.41.54,0,1,0,1.54-.1.65-.07,1.29-.19,1.94-.27.2,0,.27-.12.28-.29,0-.48.1-.95.13-1.43s.14-.51.4-.5.39.19.37.52c0,.55-.08,1.09-.13,1.67l.74.07,2.46.31c.23,0,.36,0,.39-.3.05-.61.14-1.22.2-1.83,0-.24.09-.43.36-.44s.4.14.39.44c0,.57-.1,1.14-.15,1.72,0,.1,0,.2-.05.36L19.13,2a8.48,8.48,0,0,1,2.56-.17c.27,0,.4-.05.42-.33,0-.46.08-.93.11-1.4s.14-.49.41-.49.39.18.37.5c0,.6-.1,1.2-.16,1.88l1.62.19c.11,0,.21,0,.32,0,.28,0,.42.16.4.4a.34.34,0,0,1-.41.35L23,2.79l-.36,0a4.35,4.35,0,0,0-.05.7c.07.81.16,1.61.24,2.41,0,.1,0,.2,0,.29a.36.36,0,0,1-.33.42.38.38,0,0,1-.42-.32,10.74,10.74,0,0,1-.29-2.64c0-.25,0-.49,0-.73s-.05-.27-.25-.28a10.51,10.51,0,0,0-2.85.25c-.58.13-.62.12-.58.72.05.83.17,1.65.26,2.47,0,.31.07.62.08.93a.35.35,0,0,1-.39.41c-.89,0-1.78-.09-2.68-.17-.43,0-.86-.14-1.34-.22,0,.37,0,.67,0,1-.08.69-.2,1.38-.29,2.08a1.25,1.25,0,0,0,.07.87c.14.26-.07.46-.26.58a.86.86,0,0,1-.48.06,2.87,2.87,0,0,0-.5-.07c-.91.09-1.83.23-2.75.31-.57.05-.6,0-.51.59a12.87,12.87,0,0,1,.3,2.9c0,.18.09.2.22.18l2.21-.27L13,15.1a.38.38,0,0,1,.08.75c-1,.13-2.09.26-3.14.37-.15,0-.24,0-.28.21a10.59,10.59,0,0,0-.25,3c0,.44,0,.47.46.43.85-.08,1.7-.2,2.55-.31l.11,0c.54-.06.52-.06.53-.61s.08-1.22.12-1.84a1.36,1.36,0,0,1,0-.17c.07-.27.23-.4.45-.35a.41.41,0,0,1,.3.5c0,.38-.12.75-.14,1.13s0,.84,0,1.28l.76.06c.28,0,.45.18.43.41s-.22.37-.51.35c-.12,0-.25,0-.37,0l-.16,0c.05.29.1.57.13.86s.07.77.09,1.16-.14.51-.39.52-.36-.19-.38-.5q-.08-.84-.18-1.68c-.06-.43-.08-.43-.51-.36-.62.09-1.23.21-1.85.28-.4.05-.81.05-1.26.07,0,.27.07.52.09.76s0,.67.05,1a.39.39,0,0,1-.38.43c-.21,0-.35-.17-.37-.44-.05-.53-.1-1.07-.17-1.6a.35.35,0,0,0-.2-.23,11.54,11.54,0,0,0-3.1-.3c-.42,0-.41,0-.36.43s.13,1.09.17,1.63c0,.32-.15.52-.4.51s-.35-.19-.38-.5c0-.53-.11-1.06-.15-1.6,0-.23-.11-.29-.36-.26-.52.08-1,.11-1.57.14-.31,0-.49-.14-.49-.37s.18-.35.47-.38c.53,0,1-.09,1.57-.16a.31.31,0,0,0,.18-.22,11.1,11.1,0,0,1,.27-3.2A2.17,2.17,0,0,0,4.46,16Zm9-8.27h0c0-.19,0-.37,0-.56S13.31,7,13.16,7l-.72.06c-.83.1-1.66.22-2.5.31-.18,0-.22.09-.23.25,0,.47-.06.93-.11,1.4s-.16,1.15-.24,1.73c0,.2.05.29.26.28s.59,0,.87,0l2.32-.32c.15,0,.21-.08.22-.24s.05-.46.09-.69C13.22,9.09,13.33,8.43,13.43,7.77Zm-8,7.32h.41c.52,0,1,0,1.58.07s.8.15,1.2.22.4,0,.4-.33a4.5,4.5,0,0,0,0-.64c-.09-.7-.21-1.39-.3-2.09s-.07-.57-.65-.7a9.68,9.68,0,0,0-2.74-.17c-.25,0-.35.1-.31.38C5.1,12.9,5.23,14,5.38,15.09ZM17.77,6.65l0-.36a11.45,11.45,0,0,1-.28-3.14c0-.18-.08-.2-.23-.21-.31,0-.63,0-.94,0-.69-.09-1.38-.2-2.07-.31-.29,0-.39.05-.41.35a10.19,10.19,0,0,0,.26,3.11.29.29,0,0,0,.22.19c.47.09,1,.17,1.44.23C16.38,6.54,17.05,6.59,17.77,6.65ZM8.9,6.56a.81.81,0,0,0,0-.16,12.09,12.09,0,0,1-.3-3.34c0-.06-.09-.17-.15-.19A10.37,10.37,0,0,0,5.26,2.6c-.23,0-.28.12-.3.33A10.25,10.25,0,0,0,5.19,6c0,.21.12.25.31.24a9.64,9.64,0,0,1,2.73.22C8.44,6.52,8.67,6.53,8.9,6.56Zm0,9.64c-.38-.06-.68-.14-1-.17-.79-.07-1.59-.12-2.38-.17-.17,0-.25.06-.28.25-.06.49-.18,1-.24,1.47a6.25,6.25,0,0,0,0,2,11,11,0,0,1,3.65.25A11.17,11.17,0,0,1,8.89,16.2ZM5,10.68l.18,0a10.26,10.26,0,0,1,3.22.22c.18,0,.24,0,.26-.21,0-.42.08-.83.13-1.25.08-.62.15-1.23.23-1.85,0-.19-.06-.28-.26-.3a5.75,5.75,0,0,1-.83-.14A8.44,8.44,0,0,0,5.39,7ZM13.3,6.22c0-.15,0-.28-.07-.4A10.31,10.31,0,0,1,13,2.94c0-.37,0-.38-.35-.33a13.61,13.61,0,0,1-3,.33c-.26,0-.37.07-.34.33a1.33,1.33,0,0,1,0,.2,14,14,0,0,0,.31,3c0,.2.17.19.3.17Z"/><path d="M15.18,16.89c.14-.3-.07-.51-.33-.74A2.81,2.81,0,0,1,15,11.9a.53.53,0,0,0,.22-.51A2.79,2.79,0,0,1,18.3,8.3a.5.5,0,0,0,.49-.21,2.82,2.82,0,0,1,4.39,0,.46.46,0,0,0,.46.21,2.81,2.81,0,0,1,3.16,2.59.76.76,0,0,1,0,.15c-.13.48.1.77.43,1.11A2.78,2.78,0,0,1,27,16.3a.43.43,0,0,0-.18.45,2.82,2.82,0,0,1-3.54,3.05c-.11,0-.26-.06-.3-.14a.66.66,0,0,1-.08-.45c.07-.2.28-.23.48-.17A2.07,2.07,0,0,0,26,16.57c-.11-.43-.08-.49.29-.71a2.08,2.08,0,0,0,0-3.54c-.41-.25-.42-.27-.32-.72a2.06,2.06,0,0,0-2.41-2.52c-.55.11-.55.11-.86-.36a2,2,0,0,0-3.41,0,.71.71,0,0,1-.88.37A2.06,2.06,0,0,0,16,11.6c.1.45.09.47-.29.71a2.06,2.06,0,0,0,0,3.55c.36.22.38.28.29.7a2.07,2.07,0,0,0,2.51,2.51l.11,0a.39.39,0,1,1,.19.74,2.83,2.83,0,0,1-3.64-2.89Z"/><path d="M22.3,19.56v3.75a1.28,1.28,0,0,0,1.07,1.3c.27.06.39.21.35.44s-.22.33-.45.32a2,2,0,0,1-1.69-1.66,2.42,2.42,0,0,1,0-.47V15.86a.91.91,0,0,1,0-.23.38.38,0,0,1,.76,0,1.92,1.92,0,0,1,0,.24v3.66Z"/><path d="M20.44,19.62c0,1.26,0,2.52,0,3.77a2,2,0,0,1-1.52,1.95c-.1,0-.24.06-.31,0s-.32-.21-.34-.33a.5.5,0,0,1,.26-.39c.95-.35,1.17-.64,1.17-1.67V15.83c0-.24,0-.47.31-.51s.44.12.44.44v3.86Z"/></svg>