<svg id="Layer_1" data-name="Layer 1" xmlns="http://www.w3.org/2000/svg" viewBox="0 0 30 25"><title>Dupatta indvidual logo</title><path d="M23.11,21.65h.94c.32,0,.41.08.42.42v2.66c0,.33-.12.44-.45.44H6c-.35,0-.45-.11-.46-.46V22.09c0-.35.1-.43.44-.44H6.9v-.29c0-1,0-1.91.1-2.86a4.18,4.18,0,0,1,1.94-3.17c.58-.39,1.19-.73,1.79-1.09a2,2,0,0,0,0-3.49c-.7-.42-1.41-.81-2.06-1.28A4.29,4.29,0,0,1,7,6.09c-.06-.82,0-1.64,0-2.45v-.3H6c-.35,0-.46-.09-.46-.44V.27c0-.36.09-.44.46-.44H24c.46,0,.52.07.52.53V2.89c0,.36-.1.45-.47.45s-.59,0-.9,0c0,.24,0,.45,0,.66,0,.89,0,1.78-.12,2.65a4.32,4.32,0,0,1-2.16,3.18c-.55.35-1.14.66-1.69,1a1.94,1.94,0,0,0,0,3.33c.63.39,1.3.75,1.92,1.16a4.42,4.42,0,0,1,2,3.68c0,.8,0,1.61,0,2.41A2,2,0,0,0,23.11,21.65ZM8.2,3.35c0,.93,0,1.82,0,2.71A3.24,3.24,0,0,0,9.89,8.79l1.5.88a3.22,3.22,0,0,1,0,5.65c-.54.32-1.1.63-1.63,1a3,3,0,0,0-1.48,2.14c-.13,1.06-.12,2.13-.17,3.21H21.86c0-1,0-1.94-.09-2.9a3,3,0,0,0-1.38-2.33c-.6-.39-1.21-.74-1.82-1.1a3.23,3.23,0,0,1,0-5.6c.53-.31,1.07-.61,1.59-.93a3.11,3.11,0,0,0,1.61-2.44c.09-1,.05-2,.07-2.93,0,0,0,0,0,0Z"/><path d="M20.12,20.66H9.88a6.79,6.79,0,0,1,.2-2.37,2,2,0,0,1,.74-.84A15.8,15.8,0,0,1,13.71,16a2.6,2.6,0,0,1,1.51-.31,4.54,4.54,0,0,1,1.1.34c.87.4,1.72.82,2.56,1.26a2.22,2.22,0,0,1,1.24,2.2C20.11,19.85,20.12,20.24,20.12,20.66Z"/><path d="M10.46,7.24A2.64,2.64,0,0,1,12,6.37a4.9,4.9,0,0,1,2.65.29c.61.2,1.2.44,1.81.65A6.85,6.85,0,0,0,19,7.74a3.17,3.17,0,0,1-.36.28c-.64.32-1.28.66-1.95.93A2.69,2.69,0,0,0,15.28,10c-.22.36-.51.36-.72,0a2.6,2.6,0,0,0-1.4-1.17A8.72,8.72,0,0,1,10.46,7.24Z"/></svg>