<svg id="Layer_1" data-name="Layer 1" xmlns="http://www.w3.org/2000/svg" viewBox="0 0 30 25"><defs><style>.cls-1{fill:#fff;}</style></defs><title>Dupatta indvidual logo</title><path d="M15.48,12.07c0,.14.07.29.1.43.18.84.32,1.69.42,2.54.08.63.14,1.26.2,1.89,0,.41.05.83.07,1.25s0,1.07,0,1.61,0,1.12,0,1.67,0,.88,0,1.31-.07,1.07-.11,1.6a1.86,1.86,0,0,1-.07.34.64.64,0,0,1-.08.14.12.12,0,0,1-.1,0,.1.1,0,0,1-.06-.08.24.24,0,0,1,0-.14A3.37,3.37,0,0,0,16,23.39a.1.1,0,0,0,0-.08l-.43-.14H15.5v.21a3.43,3.43,0,0,1-.08.9.82.82,0,0,1-.18.36.39.39,0,0,1-.15.06c-.07,0-.09,0-.07-.1a.19.19,0,0,1,.05-.09,1.21,1.21,0,0,0,.21-.61q0-.31,0-.63c0-.13-.05-.17-.18-.2L14.87,23h0c0,.13,0,.26,0,.39a3.71,3.71,0,0,1-.26,1.08.34.34,0,0,1-.09.14s-.09,0-.13,0,0-.08,0-.12a.75.75,0,0,1,0-.16,2.84,2.84,0,0,0,.26-1.34s0-.06,0-.06l-.5,0c0,.15,0,.29,0,.43a4.77,4.77,0,0,1-.24,1,.41.41,0,0,1-.08.13.14.14,0,0,1-.11,0,.13.13,0,0,1,0-.09.26.26,0,0,1,0-.15A4.1,4.1,0,0,0,13.89,23V23h-.53a.08.08,0,0,0-.08.07c0,.09,0,.18,0,.27,0,.33,0,.66,0,1,0,0,0,.09,0,.14s0,.09-.1.09-.07-.05-.07-.08c0-.25,0-.49,0-.74s0-.5,0-.75l-.55,0a2.58,2.58,0,0,0,0,.39,5.68,5.68,0,0,0,0,.59c0,.09,0,.18,0,.27a.49.49,0,0,1,0,.12s0,.11-.07.11a.1.1,0,0,1-.13-.09,3.17,3.17,0,0,1,0-.44c0-.31.05-.62.08-.92v-.07l-.57-.13c0,.16,0,.32,0,.48s0,.54,0,.81a.27.27,0,0,1,0,.13.11.11,0,0,1-.08.07s-.07,0-.08-.06a1.65,1.65,0,0,1,0-.31c0-.36,0-.73.05-1.09,0-.07,0-.1-.07-.13a4.16,4.16,0,0,1-.4-.16c0,.11,0,.21-.05.32a4.61,4.61,0,0,0,0,.91.43.43,0,0,1,0,.16A.2.2,0,0,1,11,24s-.08,0-.09-.06a1.84,1.84,0,0,1-.06-.4A3.35,3.35,0,0,1,11,22.45s0-.06,0-.06c-.16-.12-.33-.23-.51-.35,0,.09,0,.17,0,.26a3.36,3.36,0,0,0,0,1,.47.47,0,0,1,0,.17.09.09,0,0,1-.07.06s-.06,0-.06-.05a1.53,1.53,0,0,1-.07-.29A3.93,3.93,0,0,1,10.29,22a.08.08,0,0,0,0-.08l-.44-.51h0c0,.14,0,.28,0,.41a5.55,5.55,0,0,0,0,1,.5.5,0,0,1,0,.12s0,.06-.06.06a.11.11,0,0,1-.08-.05.61.61,0,0,1-.05-.18c0-.27,0-.55,0-.82s0-.46.06-.69a.19.19,0,0,0,0-.07l-.44-.41h0l0,.37a4.37,4.37,0,0,0,.06,1,.25.25,0,0,1,0,.09.13.13,0,0,1-.09.06s-.08,0-.08-.07a2,2,0,0,1-.08-.43A5.26,5.26,0,0,1,9,20.67a0,0,0,0,0,0-.06l-.5-.29a4.27,4.27,0,0,0,0,.49c0,.31,0,.61,0,.92a.31.31,0,0,1,0,.13c0,.06-.07.07-.11,0a.43.43,0,0,1-.06-.18c0-.26,0-.51,0-.76s0-.44.06-.67l-.6-.2a3.42,3.42,0,0,0,0,.45c0,.31,0,.63,0,.94a.45.45,0,0,1,0,.12c0,.06,0,.08-.1.05a.2.2,0,0,1-.09-.17,4.74,4.74,0,0,1,0-1.19c0-.07,0-.15,0-.25L7,19.92c0,.18,0,.35-.06.52s0,.6,0,.9c0,0,0,.06,0,.08a.2.2,0,0,1-.08.08s-.08,0-.08-.06a.85.85,0,0,1,0-.23c0-.44.05-.87.07-1.33a2.8,2.8,0,0,0-.6-.05c0,.1,0,.21,0,.31a7.1,7.1,0,0,0,0,1,.25.25,0,0,1,0,.15s0,.09-.06.08a.14.14,0,0,1-.1,0,.23.23,0,0,1,0-.14,5.63,5.63,0,0,1,0-1.36V19.8l-.5,0a.08.08,0,0,0-.09.09c0,.18,0,.37,0,.55s.05.52.08.78v.07c0,.05,0,.1-.09.11a.09.09,0,0,1-.11-.08,2,2,0,0,1-.06-.41c0-.36,0-.73,0-1.09,0,0,0,0,0,0h-.5c0,.18,0,.35,0,.52s0,.59,0,.89c0,0,0,0,0,.08s0,.08-.08.08-.08,0-.09-.08a2.66,2.66,0,0,1,0-.28,6.26,6.26,0,0,1,0-1.22H3.94v.4c0,.29,0,.58.05.86a1.15,1.15,0,0,1,0,.19s0,.08-.08.08-.08,0-.08-.06a2.2,2.2,0,0,1-.06-.37c0-.29,0-.58,0-.87,0-.07,0-.13,0-.2s0-.06,0-.06l-.42-.08c0,.11,0,.21,0,.32,0,.35,0,.7,0,1.05a.34.34,0,0,1,0,.1.18.18,0,0,1-.07.08s-.07,0-.08-.07a.85.85,0,0,1,0-.23c0-.4.06-.8.1-1.2A.13.13,0,0,0,3,19.53l-.35-.22a4.52,4.52,0,0,0-.11.47c0,.24,0,.47,0,.71l0,.24s-.05.05-.07.08-.08,0-.09-.09a.83.83,0,0,1,0-.22,3,3,0,0,1,.22-1.26.08.08,0,0,0,0-.08,2.44,2.44,0,0,1-.34-.61l0,0,0,.07a4.64,4.64,0,0,0-.21,1.17,2.45,2.45,0,0,1,0,.27.09.09,0,0,1-.1.1c-.07,0-.09-.06-.09-.12s0-.31,0-.47a7.59,7.59,0,0,1,.53-1.8,21.11,21.11,0,0,0,.86-2.42,23.23,23.23,0,0,0,.64-3.2c.06-.55.1-1.1.13-1.65,0-.38,0-.76,0-1.15a24.65,24.65,0,0,0-.27-3.43,9.16,9.16,0,0,0-.57-2.11,3.31,3.31,0,0,0-.7-1.07,2,2,0,0,0-.58-.43l-.14-.08a.14.14,0,0,1,0-.26,5.07,5.07,0,0,1,.46-.35A12,12,0,0,1,3.76.65,6.7,6.7,0,0,1,5.64.15a7.94,7.94,0,0,1,1.29,0L8,.22,9.55.36l2.37.29L14.19,1,16,1.25a3.83,3.83,0,0,1,1.05.3,4,4,0,0,1,1,.69A11.13,11.13,0,0,1,19.4,3.71c.52.63,1,1.27,1.57,1.89a17.69,17.69,0,0,0,3,2.75,13.27,13.27,0,0,0,2.56,1.47,5.65,5.65,0,0,0,1.26.36,4.44,4.44,0,0,1,.52.15.3.3,0,0,1,.13.09.15.15,0,0,1,0,.11s-.07.06-.1.05a1,1,0,0,1-.24-.05l-.93-.23v.39c.14,0,.29.07.42.12a5,5,0,0,1,.57.28.59.59,0,0,1,.17.18.11.11,0,0,1,0,.11.14.14,0,0,1-.11,0,.3.3,0,0,1-.16-.08,2.7,2.7,0,0,0-1-.42s-.07,0-.08,0l-.19.27c.18.09.35.15.51.24a6.42,6.42,0,0,1,.53.38A.35.35,0,0,1,28,12a.38.38,0,0,1,0,.15.37.37,0,0,1-.15,0l-.2-.17a2.53,2.53,0,0,0-.89-.5h-.07l-.23.29.34.2a3.34,3.34,0,0,1,.78.67l0,.06s0,.1,0,.12a.13.13,0,0,1-.12,0,.65.65,0,0,1-.16-.13,3.54,3.54,0,0,0-.92-.71l-.1,0-.27.39.32.22a3.25,3.25,0,0,1,.68.6.6.6,0,0,1,.09.13.1.1,0,0,1,0,.13.1.1,0,0,1-.13,0l-.2-.2a3.47,3.47,0,0,0-.79-.64l-.09,0-.29.45.28.19a3.59,3.59,0,0,1,.64.59.33.33,0,0,1,.07.13.14.14,0,0,1,0,.11.13.13,0,0,1-.12,0,1.53,1.53,0,0,1-.18-.18,3.14,3.14,0,0,0-.66-.6l-.13-.07c-.07.1-.13.21-.19.31l0,.06c-.06.13-.07.13.06.21a4.17,4.17,0,0,1,.72.6l.13.18s0,.11,0,.14a.17.17,0,0,1-.12,0,1.26,1.26,0,0,1-.2-.2,2.5,2.5,0,0,0-.69-.56l-.07,0-.24.53c.17.13.33.24.48.37a1.75,1.75,0,0,1,.43.51.22.22,0,0,1,0,.16c0,.07-.08.08-.13,0a.72.72,0,0,1-.11-.15,2,2,0,0,0-.72-.7l-.08,0-.15.47a1.72,1.72,0,0,1-.07.21c0,.06,0,.09.05.11a2.2,2.2,0,0,1,.58.37,3.08,3.08,0,0,1,.3.33.41.41,0,0,1,.07.15s0,.08,0,.09a.11.11,0,0,1-.11,0,.63.63,0,0,1-.11-.12,2,2,0,0,0-.76-.65l0,0h0l-.09.43,0,.22c0,.06,0,.08,0,.1a2,2,0,0,1,.59.35c.12.12.23.26.34.39a.11.11,0,0,1,0,.07s0,.08,0,.1a.09.09,0,0,1-.1,0A.67.67,0,0,1,25,17a1.79,1.79,0,0,0-.69-.59l-.09,0c0,.12,0,.24-.05.36l0,.39c0,.05,0,.07.07.08a1.76,1.76,0,0,1,.86.58.49.49,0,0,1,.14.29.25.25,0,0,1,0,.12l-.11,0A.81.81,0,0,1,25,18a1.72,1.72,0,0,0-.79-.62l0,0h0c0,.13,0,.27,0,.41s0,.16.15.24a2,2,0,0,1,.89.83.68.68,0,0,1,.08.24s0,.07,0,.07a.08.08,0,0,1-.07,0,1.24,1.24,0,0,1-.18-.22,2.41,2.41,0,0,0-.77-.72l-.1-.05-.09.53s0,0,0,.05a2.58,2.58,0,0,1,.69.54,5.86,5.86,0,0,1,.37.5.48.48,0,0,1,.07.23.31.31,0,0,1-.05.12l-.1-.05a2.39,2.39,0,0,1-.13-.21,2.18,2.18,0,0,0-.92-.91h0l-.09.5,0,.06a2.79,2.79,0,0,1,.9.91,3,3,0,0,1,.17.37.09.09,0,0,1,0,.13.1.1,0,0,1-.13-.05c-.06-.11-.12-.22-.19-.33a2.81,2.81,0,0,0-.79-.82l0,0-.12.38a.13.13,0,0,0,0,.07,5.57,5.57,0,0,1,.83,1.1.8.8,0,0,1,.11.25.14.14,0,0,1,0,.12.09.09,0,0,1-.13,0,.57.57,0,0,1-.08-.13,8.71,8.71,0,0,0-.83-1.15c-.07.12-.14.24-.2.36s0,0,0,.06a3.7,3.7,0,0,0,.5.74c.12.15.23.31.34.46s0,0,0,0v.14a.3.3,0,0,1-.13,0A.17.17,0,0,1,24,22c-.2-.24-.39-.49-.58-.74s-.14-.25-.22-.38a3.55,3.55,0,0,0-.23.31s0,.05,0,.08a3.54,3.54,0,0,0,.69,1.05,1,1,0,0,1,.11.17.11.11,0,0,1,0,.1s-.06,0-.09,0a.26.26,0,0,1-.11-.07,3.47,3.47,0,0,1-.56-.76l-.22-.37-.24.25a.06.06,0,0,0,0,.06,4,4,0,0,0,.36.89c.07.1.17.19.25.29a.41.41,0,0,1,.1.13c0,.08,0,.12-.06.1A.72.72,0,0,1,23,23a1.08,1.08,0,0,1-.35-.49c-.09-.2-.17-.42-.25-.63l0-.08c-.12.1-.24.2-.35.31a.08.08,0,0,0,0,.07,2.27,2.27,0,0,0,.44,1,1.37,1.37,0,0,0,.18.16.54.54,0,0,1,.09.12.12.12,0,0,1,0,.1.14.14,0,0,1-.11,0,.65.65,0,0,1-.29-.23,2.55,2.55,0,0,1-.45-1s0-.05,0-.07,0,0,0,0l-.06,0-.32.23a.18.18,0,0,0,0,.09,3.89,3.89,0,0,0,.41,1.06,1.51,1.51,0,0,0,.17.2A.54.54,0,0,1,22,24a.06.06,0,0,1-.07.09.34.34,0,0,1-.17-.08,1.39,1.39,0,0,1-.36-.59c-.08-.22-.15-.45-.22-.67l0-.08-.26.16a.07.07,0,0,0,0,.06c0,.29.05.59.09.89a1.17,1.17,0,0,0,.28.62.94.94,0,0,1,.14.19.1.1,0,0,1,0,.09s-.06,0-.09,0a.41.41,0,0,1-.17-.12,1.43,1.43,0,0,1-.35-.88c0-.21,0-.41-.06-.62a2.31,2.31,0,0,0-.23-.67c-.28-.71-.57-1.42-.85-2.14-.46-1.15-.9-2.31-1.42-3.43a23.08,23.08,0,0,0-1.75-3.25l-.86-1.39-.09-.14ZM7.38.38v0h0l.11.06a5.56,5.56,0,0,1,1.11.63A8.63,8.63,0,0,1,9.85,2.21c.3.33.6.66.87,1s.65.91,1,1.37c.54.77,1.1,1.53,1.68,2.27.38.48.72,1,1.09,1.47a18,18,0,0,0,2.13,2.32c.58.52,1.17,1,1.74,1.58s1.27,1.2,1.9,1.81c.35.34.69.7,1,1.06a17.71,17.71,0,0,1,1.32,1.55l.28.38s0-.05,0-.08c.1-.51.19-1,.31-1.52a10.31,10.31,0,0,1,.57-1.73,8.85,8.85,0,0,1,2-3l.22-.2-.05,0-.78-.31A12.88,12.88,0,0,1,22.7,8.77a16.62,16.62,0,0,1-2.63-2.4c-.6-.67-1.17-1.37-1.76-2-.4-.46-.78-.94-1.21-1.37s-1-.89-1.45-1.34a.83.83,0,0,0-.42-.23c-.44-.06-.88-.14-1.32-.21L11.43.83C10.8.74,10.16.67,9.53.6L8,.44ZM7.43,5c0,.13.05.23.06.34a.35.35,0,0,0,.1.22,1.3,1.3,0,0,1,.36,1,2.54,2.54,0,0,1-.22.86c-.09.17-.21.19-.33,0A3.35,3.35,0,0,1,7,6.79,1.15,1.15,0,0,1,7,5.68a.27.27,0,0,0,0-.21c0-.11,0-.23-.06-.35a.48.48,0,0,0-.21.35A4.54,4.54,0,0,1,6.68,6a.8.8,0,0,1-.57.57.21.21,0,0,1-.16,0,.25.25,0,0,1,0-.17l.13-.24a3.36,3.36,0,0,0,.41-.77c.1-.29.19-.59.29-.88a1,1,0,0,0,0-.58c0-.23-.12-.46-.18-.68l-.09-.37s0,0,0,0a3.17,3.17,0,0,1-.16.91,1.68,1.68,0,0,1-.61.93.79.79,0,0,1-.55.19c-.1,0-.14-.07-.1-.15a.51.51,0,0,1,.13-.16c.18-.18.38-.34.55-.53a2.07,2.07,0,0,0,.53-1,2.58,2.58,0,0,0,0-1l-.06-.28h0V2a2.14,2.14,0,0,1,0,.62.59.59,0,0,1-.12.22c0,.06-.1.05-.13,0a.65.65,0,0,1,0-.19c0-.13,0-.26,0-.39,0-.34-.06-.67-.11-1A6.2,6.2,0,0,0,5.61.47c0-.07,0-.09-.12-.07L5,.49a8,8,0,0,0-1.77.66L3,1.29l.28.29a5.14,5.14,0,0,1,.91,1.48,9.23,9.23,0,0,1,.65,2.58c.07.6.13,1.21.17,1.81s.06,1.19.08,1.78c0,.43,0,.87,0,1.3S5,11.5,5,12s-.13,1.06-.2,1.6a14.53,14.53,0,0,1-.49,2.15,16,16,0,0,1-.74,2,3,3,0,0,0-.12.32l.42.06,1.94.13c.45,0,.89.05,1.33.11a5.27,5.27,0,0,1,2.73,1.11l.07.05c0-.39,0-.76.06-1.13s0-.78,0-1.16,0-1,.05-1.48c0-.26,0-.52,0-.78,0-.44,0-.89,0-1.33s0-1.12,0-1.68,0-1,0-1.47,0-1.13-.08-1.7S9.92,7.6,9.86,7a24.72,24.72,0,0,0-.56-3.3,8.14,8.14,0,0,0-.7-2A1.62,1.62,0,0,0,7.93.93,4.78,4.78,0,0,0,6.29.36c-.12,0-.25,0-.39,0l0,0A2,2,0,0,1,6.5.93c.19.27.39.54.57.81s.19.3.27.45,0,.19-.11.17A.45.45,0,0,1,7,2.26a.58.58,0,0,1-.14-.17L6.65,1.8s0,0,0,0L7,2.47A1.59,1.59,0,0,0,7.45,3a5,5,0,0,0,1.15.53L9,3.71a.09.09,0,0,1,0,.15.33.33,0,0,1-.13.07,1.24,1.24,0,0,1-1.13-.17,3,3,0,0,1-.65-.67L7,2.9V3c.08.35.16.69.23,1a1,1,0,0,0,.29.48,4,4,0,0,1,.35.36,4.69,4.69,0,0,0,.91.87.63.63,0,0,1,.11.12c.07.11,0,.17-.09.18A.88.88,0,0,1,8,5.71a3.79,3.79,0,0,1-.31-.39A1,1,0,0,0,7.43,5ZM8.92,1.65h0s0,0,0,0a11.77,11.77,0,0,1,.63,1.93A24.36,24.36,0,0,1,10,6c.07.5.12,1,.16,1.51.07.85.13,1.71.18,2.56,0,.45,0,.89.05,1.33s0,1,0,1.55c0,.82,0,1.64,0,2.46,0,.6-.06,1.2-.08,1.8l-.06,1.37c0,.35,0,.7-.05,1.06a.12.12,0,0,0,0,.08c.13.14.26.28.4.41a6.22,6.22,0,0,0,.6.54,3.56,3.56,0,0,0,2.07.66c.32,0,.63,0,1,0a6.51,6.51,0,0,1,1.16.11c.06,0,.09,0,.09-.07,0-.31,0-.61,0-.92,0-1,0-1.95-.05-2.93,0-.65-.08-1.29-.15-1.94a27.3,27.3,0,0,0-.52-3.38c-.2-.94-.43-1.86-.66-2.79-.09-.35-.2-.68-.3-1-.05-.17-.1-.34-.14-.51A2,2,0,0,0,13.21,7c-.33-.42-.65-.85-1-1.28-.05-.08-.11-.15-.17-.23-.05.13-.06.13-.16,0l-.39-.39a.14.14,0,0,1,0-.07.94.94,0,0,1,.06-.15l.12.08h0L11,4l0,0,0,.09.39.92a1.1,1.1,0,0,0,.29.42l.22.19a1.65,1.65,0,0,1,.44.47.51.51,0,0,1,.06.25c0,.08,0,.1-.12.07a.34.34,0,0,1-.12-.09c-.19-.19-.37-.38-.54-.58a.6.6,0,0,1-.15-.31.22.22,0,0,0-.06-.15l-.19-.14a1.36,1.36,0,0,0,0,.17,3,3,0,0,0,.16.37,3.16,3.16,0,0,0,.48.55,3.59,3.59,0,0,1,.62.55.63.63,0,0,1,.12.31c0,.06,0,.1-.09.08a.37.37,0,0,1-.18-.08c-.2-.2-.4-.41-.59-.62a3.3,3.3,0,0,1-.22-.3,3.4,3.4,0,0,0,.07.34.39.39,0,0,0,.08.1.61.61,0,0,1,.2.19,1.56,1.56,0,0,0,.16.2,2.84,2.84,0,0,1,.49.55.7.7,0,0,1,.06.19.2.2,0,0,1-.09.21c-.08,0-.13,0-.17-.07l-.19-.26L12,7.36c-.07-.09-.14-.16-.21-.24A.76.76,0,0,0,11.71,7a.16.16,0,0,0,0,.19c.07.14.15.27.23.41a1.85,1.85,0,0,1,.26.65.88.88,0,0,1-.13.69c-.07.11-.14.12-.24.05s-.05,0-.06-.05a1.41,1.41,0,0,1-.43-1.11c0-.18,0-.36,0-.54a2.47,2.47,0,0,0-.05-.38l0,0a3.86,3.86,0,0,0-.23.87A.27.27,0,0,1,10.9,8c-.05,0-.09,0-.11,0a.4.4,0,0,1,0-.18,4.58,4.58,0,0,1,.14-.53c.1-.28.22-.56.33-.84,0,0,0-.05,0-.06s-.09-.27-.13-.4c0,.14,0,.28-.06.42s-.12.46-.19.69a.15.15,0,0,1-.17.11.12.12,0,0,1-.11-.15,1.43,1.43,0,0,1,.06-.37c.1-.27.21-.53.33-.79a.8.8,0,0,0,0-.57.57.57,0,0,0,0,.18.48.48,0,0,1,0,.12,3,3,0,0,1-.1.32,4.4,4.4,0,0,1-.21.5.17.17,0,0,1-.13.07.17.17,0,0,1-.1-.1.7.7,0,0,1,0-.25,1.73,1.73,0,0,1,.28-.6,1,1,0,0,0,.19-.91,3.62,3.62,0,0,1-.13-.47h0a2.13,2.13,0,0,1,0,.25c0,.13,0,.26,0,.39s-.06.08-.1,0a.77.77,0,0,1-.08-.19c0-.12,0-.24-.06-.36,0-.34-.07-.69-.1-1a.25.25,0,0,0-.06-.17A9.66,9.66,0,0,0,9.14,1.85Zm9.19,13.77v0c.12.09.24.19.37.27a3.46,3.46,0,0,0,1.25.44l1,.13a.81.81,0,0,1,.25.08.14.14,0,0,1,0,.25.4.4,0,0,1-.17.09,2.69,2.69,0,0,1-.49,0,5.4,5.4,0,0,1-.58-.11l-.38-.06c0,.07,0,.13,0,.19a.2.2,0,0,0,.22.14.92.92,0,0,1,.65.1,1.56,1.56,0,0,1,.61.73,2.19,2.19,0,0,1,.1.34c0,.22-.09.35-.31.32a1.24,1.24,0,0,1-.38-.09,1.56,1.56,0,0,1-.85-.86,1.48,1.48,0,0,0-.23-.38,2.52,2.52,0,0,1-.37-.49,3,3,0,0,0-.54-.72L18,15.53a.31.31,0,0,0,.05.1c.19.25.39.49.59.74a2.58,2.58,0,0,1,.54,1.07,6.84,6.84,0,0,1,.12.79.65.65,0,0,1-.06.23s0,.06,0,.1l.21.52c.22.55.43,1.11.65,1.67.07.17.14.34.22.51l.07,0a4.87,4.87,0,0,0,1.34-1,3.46,3.46,0,0,0,.76-1.26,10.4,10.4,0,0,0,.32-1.47.32.32,0,0,0-.05-.23,27.24,27.24,0,0,0-2.67-3q-.74-.73-1.5-1.44c-.37-.36-.75-.71-1.13-1.06-.61-.54-1.21-1.07-1.78-1.66A15.31,15.31,0,0,1,14.3,8.49l-.06-.07h0c0,.09.07.19.11.28.14.34.28.67.41,1s.35.94.52,1.4a.57.57,0,0,0,.36.35.94.94,0,0,0,.44.06h.27a.18.18,0,0,1,.13.08.11.11,0,0,1,0,.15.48.48,0,0,1-.19.09.67.67,0,0,1-.39-.06l-.27-.11a5,5,0,0,0,.31.56.79.79,0,0,0,.39.33l.25.1a1.78,1.78,0,0,0,.82.14l.38,0a.16.16,0,0,1,.17.11c0,.06,0,.1-.06.13a.67.67,0,0,1-.41.11,2.1,2.1,0,0,1-.92-.21l-.26-.13,0,0c.12.18.24.37.37.55a.67.67,0,0,0,.41.29,2.7,2.7,0,0,0,.41.07,2,2,0,0,1,.26,0,.12.12,0,0,1,.08.09.15.15,0,0,1-.06.11.27.27,0,0,1-.15,0,.73.73,0,0,1-.43-.09l-.22-.12,0,0,.45.73,0,0a2.62,2.62,0,0,0,1.11.15c.31,0,.62-.09.93-.13a3.38,3.38,0,0,1,.45,0,.15.15,0,0,1,.14.11.16.16,0,0,1-.05.17l-.12.1a1.71,1.71,0,0,1-.8.19A3.3,3.3,0,0,1,17.9,15l-.32-.11a.53.53,0,0,0,.13.13,2.43,2.43,0,0,0,1.59.43h.87a.94.94,0,0,1,.28.06.13.13,0,0,1,0,.23.41.41,0,0,1-.11.07,1.48,1.48,0,0,1-.88.1,4.5,4.5,0,0,1-1.08-.33Zm-5.57,7.15a1.31,1.31,0,0,1,1.15-.69,1.17,1.17,0,0,1,1.1.74l.19-.26a.87.87,0,0,1,.66-.35l.28,0c.06,0,.08,0,0-.08a.53.53,0,0,0-.15-.11l-.42-.11A5.53,5.53,0,0,0,14,21.57c-.4,0-.8,0-1.19,0A3,3,0,0,1,11,20.81c-.29-.26-.56-.54-.84-.81a5,5,0,0,0-2.27-1.28,10.19,10.19,0,0,0-2.2-.27L4,18.38c-.22,0-.44-.06-.66-.09a.19.19,0,0,1-.15-.24c0-.13.09-.26.14-.39a14.14,14.14,0,0,0,.89-2.51A21.27,21.27,0,0,0,4.75,12c.07-.7.11-1.4.11-2.09,0-.35,0-.69,0-1s0-.64,0-1q0-.76-.12-1.53a14.42,14.42,0,0,0-.25-1.73,6.75,6.75,0,0,0-.93-2.41,4.61,4.61,0,0,0-.66-.8s-.06,0-.1,0l-.44.28-.08.07.26,0A.93.93,0,0,1,3.27,3s0,.06,0,.09a2.9,2.9,0,0,1,.29.19A1.09,1.09,0,0,1,4,4.71a2.4,2.4,0,0,1-.11.23L4,5a.93.93,0,0,1,.35.33,1.1,1.1,0,0,1,0,1,2.49,2.49,0,0,1-.19.3s0,.07,0,.11L4.39,7a.88.88,0,0,1,0,1.15,2.61,2.61,0,0,1-.22.27,1,1,0,0,1,.45.78.92.92,0,0,1-.46.8l.11.09a1.11,1.11,0,0,1,.33.56.85.85,0,0,1-.37.83l-.14.11.06.06a1.42,1.42,0,0,1,.3.5.64.64,0,0,1-.3.78L4,13s-.06.07,0,.11l.15.2a.67.67,0,0,1-.13,1l-.27.18.06.12c.06.14.12.28.17.42a.52.52,0,0,1,0,.37.61.61,0,0,1-.38.39l-.19.08c-.09.05-.1.09-.06.18s.09.19.13.28a.79.79,0,0,1,.07.37.59.59,0,0,1-.35.43c-.12.06-.24.14-.36.21s-.07.07,0,.13a2.18,2.18,0,0,1,.32.86,1,1,0,0,0,0,.16l.13,0a.72.72,0,0,1,.54.06,2.35,2.35,0,0,1,.6.48c.1.11.18.22.27.34l0-.05a2.57,2.57,0,0,1,.63-.51.94.94,0,0,1,.52-.13,1.2,1.2,0,0,1,.79.46c.1.11.19.23.29.35l.06,0c.15-.1.29-.21.45-.3a.92.92,0,0,1,1.19.15A1.45,1.45,0,0,1,9,20a2,2,0,0,0,.13.31l.06-.05a.58.58,0,0,1,.94.14,3.38,3.38,0,0,1,.18.44c.06.17.1.35.15.52s.11.18.27.14a1.61,1.61,0,0,1,.49-.06,1.09,1.09,0,0,1,.84.4c.12.15.21.32.32.48A2.52,2.52,0,0,1,12.54,22.57ZM24,15.87a2.13,2.13,0,0,1-.13-.71,2.43,2.43,0,0,1,.14-1,1.06,1.06,0,0,1,.77-.72l.07,0s.05,0,.05-.08l0-.29A1.55,1.55,0,0,1,25.17,12a1,1,0,0,1,.66-.41c.1,0,.2,0,.3,0s.09,0,.09-.06a2.77,2.77,0,0,1,.07-.7.2.2,0,0,0,0-.11.42.42,0,0,0-.12,0l-.26.23a8.29,8.29,0,0,0-1.78,2.53,13.79,13.79,0,0,0-1,3.26c-.11.58-.21,1.17-.33,1.76a3.65,3.65,0,0,1-.45,1.23,4.8,4.8,0,0,1-1.53,1.51c-.14.1-.29.18-.44.27l.13.29a1.36,1.36,0,0,1,.61-.22,1.5,1.5,0,0,1,.63.11,0,0,0,0,1,0,0v-.07a1.76,1.76,0,0,1,.17-.76,1,1,0,0,1,.83-.59l.3,0c.07,0,.08,0,.07-.1s-.05-.12-.07-.19a5.6,5.6,0,0,1-.17-.54.86.86,0,0,1,.58-1.07,1.89,1.89,0,0,1,.21-.09.08.08,0,0,0,0-.11c-.05-.09-.09-.18-.14-.26a2.16,2.16,0,0,1-.32-.92.91.91,0,0,1,.32-.8A4.1,4.1,0,0,1,24,15.87ZM20.17,5.19c-.15,0-.3-.06-.45-.11a.74.74,0,0,1-.54-.66,1.9,1.9,0,0,1,0-.34A.06.06,0,0,0,19.14,4l-.44-.16a.81.81,0,0,1-.56-.68,2.19,2.19,0,0,1,0-.36A.08.08,0,0,0,18,2.71a3.74,3.74,0,0,1-.45-.12.79.79,0,0,1-.47-.32,3.33,3.33,0,0,1-.16-.4c0-.05,0-.08-.09-.1l-.52-.19-.46-.1v0l0,0a9.8,9.8,0,0,1,1.54,1.41c.5.56,1,1.13,1.46,1.71a24.81,24.81,0,0,0,2.71,2.9,15.53,15.53,0,0,0,2,1.55,11.4,11.4,0,0,0,2.45,1.21.24.24,0,0,0,.28-.06,1.11,1.11,0,0,0-.43-.15,1.21,1.21,0,0,1-.58-.25c-.08-.09-.17-.17-.24-.26a.26.26,0,0,0-.24-.1A.83.83,0,0,1,24,9a1.67,1.67,0,0,1-.08-.2h-.14a2.55,2.55,0,0,1-.39,0,.39.39,0,0,1-.32-.34l0-.17C23,8.1,23,8,22.86,8l-.18,0a.65.65,0,0,1-.46-.2.59.59,0,0,1-.1-.41c0-.13,0-.15-.15-.18l-.34-.07a.7.7,0,0,1-.49-.53,2.36,2.36,0,0,1,0-.28s0-.06-.07-.07a3,3,0,0,1-.42-.14.67.67,0,0,1-.44-.67Zm-5,7.47h0s0,.07,0,.1c.08.47.16,1,.23,1.42s.15,1.11.21,1.67.07.94.09,1.41l.06,1.61v1.68c0,.25,0,.5,0,.75s0,.21.16.26h0q.09,0,.09-.06a1.63,1.63,0,0,0-.06-.85,1,1,0,0,1,0-.83l.06-.18a.51.51,0,0,0,0-.4,1.46,1.46,0,0,0-.07-.19.9.9,0,0,1,0-.77A1.49,1.49,0,0,0,16,18a.72.72,0,0,0-.13-.45.77.77,0,0,1-.1-.59,3.37,3.37,0,0,1,.1-.34.58.58,0,0,0-.06-.51l-.11-.2a.72.72,0,0,1-.09-.43c0-.16.05-.31.09-.47a.57.57,0,0,0-.13-.62l0-.05a.46.46,0,0,1-.12-.37c0-.17,0-.32.06-.48a.52.52,0,0,0,0-.37C15.34,13,15.24,12.81,15.15,12.66Zm-.09-.45a1.12,1.12,0,0,1,.13-.53.11.11,0,0,0,0-.08c-.1-.27-.19-.53-.29-.79-.19-.54-.38-1.08-.58-1.61A.61.61,0,0,0,14.25,9Zm3.63,5.17h0a1.92,1.92,0,0,0-.46-1.06h0Z"/><path class="cls-1" d="M7.38.38,8,.44,9.53.6c.63.07,1.27.14,1.9.23l2.48.34c.44.07.88.15,1.32.21a.83.83,0,0,1,.42.23c.49.45,1,.87,1.45,1.34s.81.91,1.21,1.37c.59.68,1.16,1.38,1.76,2.05a16.62,16.62,0,0,0,2.63,2.4,12.88,12.88,0,0,0,2.42,1.44l.78.31.05,0-.22.2a8.85,8.85,0,0,0-2,3,10.31,10.31,0,0,0-.57,1.73c-.12.5-.21,1-.31,1.52,0,0,0,.05,0,.08l-.28-.38a17.71,17.71,0,0,0-1.32-1.55c-.34-.36-.68-.72-1-1.06-.63-.61-1.26-1.22-1.9-1.81s-1.16-1.06-1.74-1.58a18,18,0,0,1-2.13-2.32c-.37-.49-.71-1-1.09-1.47-.58-.74-1.14-1.5-1.68-2.27-.32-.46-.63-.93-1-1.37s-.57-.68-.87-1A8.63,8.63,0,0,0,8.62,1.1,5.56,5.56,0,0,0,7.51.47L7.4.41h0Zm11,8.37h0l.06,0a2.3,2.3,0,0,0,1,.22.61.61,0,0,0,.3-.08c.12-.05.11-.17,0-.24a.33.33,0,0,0-.14,0h-.27a2.11,2.11,0,0,1-.83,0,1.13,1.13,0,0,1-.65-.35,1.89,1.89,0,0,1-.31-.82l.07,0a1.88,1.88,0,0,0,.54.38,1,1,0,0,0,.55.09c.07,0,.14,0,.16-.11a.22.22,0,0,0,0-.23.26.26,0,0,0-.31,0,.45.45,0,0,1-.39,0,1.16,1.16,0,0,1-.68-.69.89.89,0,0,0-.08-.17.27.27,0,0,0-.12-.06s0,0-.06.08a.19.19,0,0,0,0,.1c0,.27-.08.54-.1.82s0,.64-.06,1a.19.19,0,0,1-.09.17.23.23,0,0,0-.08.3.26.26,0,1,0,.4-.31.18.18,0,0,1-.06-.15c0-.41,0-.82.07-1.23a1.94,1.94,0,0,1,0-.24.21.21,0,0,1,0,.06c.13.49.25,1,.4,1.48s.25.72.38,1.08a.13.13,0,0,1,0,.12.2.2,0,0,0,0,.21.28.28,0,0,0,.31.16.23.23,0,0,0,.13-.29.6.6,0,0,0-.08-.16c0-.08-.11-.15-.14-.23-.17-.42-.33-.85-.49-1.27a.18.18,0,0,0,0-.06l.07.09c.26.33.51.66.77,1a2.32,2.32,0,0,0,.62.59.69.69,0,0,1,.27.34,3.72,3.72,0,0,1,.22,1.14c0,.3,0,.6,0,.9a2,2,0,0,0,0,.34.15.15,0,0,0,.09.1.2.2,0,0,0,.12-.06.32.32,0,0,0,.08-.12,1.7,1.7,0,0,0,.17-.66,2.08,2.08,0,0,0-.22-1.2c-.06-.12-.14-.23-.22-.36l.2.11a2.43,2.43,0,0,1,.92,1,7,7,0,0,1,.44,1.15,4.51,4.51,0,0,0,.17.52c0,.08.07.19.18.18s.14-.13.14-.21a1.77,1.77,0,0,0,0-.46,2.6,2.6,0,0,0-.33-1l-.17-.33a2.14,2.14,0,0,1,.48.47.14.14,0,0,1,0,.06.74.74,0,0,0,.17.37,1.51,1.51,0,0,0,.62.43,1.17,1.17,0,0,0,.58.15c.13,0,.16,0,.16-.16a1.52,1.52,0,0,0-.16-.69.94.94,0,0,0-1.09-.55.09.09,0,0,1-.07,0l-.44-.26-.14-.1h.05a2.63,2.63,0,0,0,1.15.07,1.12,1.12,0,0,0,.6-.26c.09-.09.07-.19-.05-.23l-.09,0H22.8a12.45,12.45,0,0,1-1.37.06.9.9,0,0,0-.23,0,.39.39,0,0,1-.31-.06,1,1,0,0,0-.17-.1l-.39-.18h.32c.15,0,.32,0,.46.09h0a1.74,1.74,0,0,0,1.32-.21.76.76,0,0,0,.28-.31c.05-.12,0-.2-.13-.19l-.27.06c-.33.1-.66.23-1,.33a2.74,2.74,0,0,1-.57.11,3.23,3.23,0,0,1-1-.16h.27A3.5,3.5,0,0,0,21.16,10,2.13,2.13,0,0,0,22,9.55c.17-.15.19-.28.08-.44s0,0-.09,0l-.35.17a6.27,6.27,0,0,1-.58.29c-.26.12-.53.22-.8.33h-.33a1,1,0,0,1-.74-.32h0a4,4,0,0,0,1,.06,1.57,1.57,0,0,0,1-.47A.41.41,0,0,0,21.34,9c0-.12-.07-.18-.18-.13a.42.42,0,0,0-.14.09,2.4,2.4,0,0,1-1.53.52A1.29,1.29,0,0,1,18.37,8.75ZM14.24,3.59l0,0,.14.1a3.5,3.5,0,0,0,.3.24,1.94,1.94,0,0,0,.24.15,1.8,1.8,0,0,0,1.47.15A.53.53,0,0,0,16.7,4c.08-.08.06-.16-.05-.2a.27.27,0,0,0-.12,0c-.32,0-.63,0-1,0a2.52,2.52,0,0,1-1.32-.28l-.08-.06a.32.32,0,0,1,0-.09.12.12,0,0,1,.08,0,.44.44,0,0,1,.16.06,2.27,2.27,0,0,0,.93.15,1.86,1.86,0,0,0,.79-.24.62.62,0,0,0,.17-.11c.08-.07.07-.14,0-.18a.59.59,0,0,0-.19,0,2.22,2.22,0,0,0-.67.07,2.44,2.44,0,0,1-1.23.05L14,3s0,0,0-.06A.09.09,0,0,1,14,3s.06,0,.08,0a.58.58,0,0,1,.32,0,1.55,1.55,0,0,0,1.08-.32.47.47,0,0,0,.11-.13.11.11,0,0,0-.07-.17.31.31,0,0,0-.25,0l-.62.26a1.82,1.82,0,0,1-.77.19.82.82,0,0,1-.58-.29l.41.12a.67.67,0,0,0,.2,0A.1.1,0,0,0,14,2.45a.53.53,0,0,0-.14-.12L12.74,1.7a7.17,7.17,0,0,0-.69-.3c-.16-.06-.21,0-.16.16A1.82,1.82,0,0,0,12,2c.14.29.28.57.43.85s.18.35.28.51a.4.4,0,0,0,.13.13c.06,0,.1,0,.11,0a.29.29,0,0,0,0-.16l-.18-.62,0-.09a1.41,1.41,0,0,1,.37.63,1.25,1.25,0,0,1-.14.91c-.12.25-.26.49-.39.73a.21.21,0,0,0,0,.23s.11,0,.2,0A.49.49,0,0,0,13,4.88c.09-.13.17-.26.25-.39a3.38,3.38,0,0,0,.22-.75s0,0,0,0a.29.29,0,0,1,0-.24c.08.09.09.11.09.31a2.24,2.24,0,0,1-.1.89l-.22.63a1.28,1.28,0,0,0-.09.48c0,.13.1.18.21.11a.77.77,0,0,0,.18-.18,2,2,0,0,0,.34-1,2.88,2.88,0,0,0-.12-.92.31.31,0,0,1,0-.1l0,0a2.88,2.88,0,0,1,.83,1.49,5.64,5.64,0,0,1,.06,1.36c0,.15,0,.29,0,.43a.24.24,0,0,0,.07.12c.06,0,.11,0,.14-.06a.52.52,0,0,0,.1-.18A2.32,2.32,0,0,0,15,5.5c0-.15-.07-.31-.11-.49l.32.4a.17.17,0,0,1,0,.12,1.37,1.37,0,0,0,.53,1,1.17,1.17,0,0,0,.66.29c.1,0,.15,0,.16-.11a1.92,1.92,0,0,0,0-.24,1.73,1.73,0,0,0-.18-.71.91.91,0,0,0-.75-.54.34.34,0,0,1-.29-.16c0-.07-.1-.14-.15-.21l0,0,.21,0a2.37,2.37,0,0,0,1.05.17A2.32,2.32,0,0,0,16.93,5a.48.48,0,0,0,.17-.12.09.09,0,0,0,0-.14.46.46,0,0,0-.16-.07c-.18,0-.37,0-.56-.06A4,4,0,0,1,15,4.28,1.6,1.6,0,0,1,14.24,3.59ZM13.93,4h0v0A2.61,2.61,0,0,1,14,5c0,.29-.08.58-.13.86a1.87,1.87,0,0,0,0,.58c0,.13.09.15.2.07s0,0,0,0a1.77,1.77,0,0,0,.32-1A2.47,2.47,0,0,0,14,4.1ZM20.35,11l0,0a1.36,1.36,0,0,0,0,.2c0,.38.1.76.14,1.13,0,.19,0,.38,0,.57s.07.23.15.24.16-.07.2-.2a1.94,1.94,0,0,0-.1-1.44,2.47,2.47,0,0,0-.27-.44A.48.48,0,0,0,20.35,11Zm-.86.28,0-.3a1.53,1.53,0,0,0-.17-.55.57.57,0,0,0-.12-.15c-.06,0-.11,0-.12.05v.21a5.62,5.62,0,0,1,.06.56c0,.19-.05.38-.07.57a2.71,2.71,0,0,0,0,.4c0,.12.12.15.21.07a.48.48,0,0,0,.12-.16A1.85,1.85,0,0,0,19.49,11.26Z"/><path class="cls-1" d="M7.43,5a1,1,0,0,1,.3.3A3.79,3.79,0,0,0,8,5.71a.88.88,0,0,0,.72.3c.12,0,.16-.07.09-.18a.63.63,0,0,0-.11-.12,4.69,4.69,0,0,1-.91-.87,4,4,0,0,0-.35-.36A1,1,0,0,1,7.19,4C7.12,3.66,7,3.32,7,3V2.9l.13.19a3,3,0,0,0,.65.67,1.24,1.24,0,0,0,1.13.17A.33.33,0,0,0,9,3.86a.09.09,0,0,0,0-.15L8.6,3.57A5,5,0,0,1,7.45,3,1.59,1.59,0,0,1,7,2.47l-.32-.64s0,0,0,0l.23.29A.58.58,0,0,0,7,2.26a.45.45,0,0,0,.21.1c.11,0,.17-.07.11-.17s-.17-.3-.27-.45S6.69,1.2,6.5.93A2,2,0,0,0,6,.4l0,0c.14,0,.27,0,.39,0A4.78,4.78,0,0,1,7.93.93a1.62,1.62,0,0,1,.67.75,8.14,8.14,0,0,1,.7,2A24.72,24.72,0,0,1,9.86,7c.06.59.11,1.19.15,1.78s.06,1.13.08,1.7,0,1,0,1.47,0,1.12,0,1.68,0,.89,0,1.33c0,.26,0,.52,0,.78,0,.49,0,1-.05,1.48s0,.77,0,1.16,0,.74-.06,1.13l-.07-.05a5.27,5.27,0,0,0-2.73-1.11c-.44-.06-.88-.08-1.33-.11l-1.94-.13-.42-.06a3,3,0,0,1,.12-.32,16,16,0,0,0,.74-2,14.53,14.53,0,0,0,.49-2.15c.07-.54.15-1.07.2-1.6s.08-1,.1-1.46,0-.87,0-1.3c0-.59,0-1.19-.08-1.78s-.1-1.21-.17-1.81a9.23,9.23,0,0,0-.65-2.58,5.14,5.14,0,0,0-.91-1.48L3,1.29l.27-.14A8,8,0,0,1,5,.49L5.49.4c.08,0,.11,0,.12.07a6.2,6.2,0,0,1,.16.72c.05.34.08.67.11,1,0,.13,0,.26,0,.39a.65.65,0,0,0,0,.19c0,.07.09.08.13,0a.59.59,0,0,0,.12-.22,2.14,2.14,0,0,0,0-.62v-.1h0l.06.28a2.58,2.58,0,0,1,0,1,2.07,2.07,0,0,1-.53,1c-.17.19-.37.35-.55.53a.51.51,0,0,0-.13.16c0,.08,0,.15.1.15a.79.79,0,0,0,.55-.19,1.68,1.68,0,0,0,.61-.93,3.17,3.17,0,0,0,.16-.91s0,0,0,0l.09.37c.06.22.13.45.18.68a1,1,0,0,1,0,.58c-.1.29-.19.59-.29.88a3.36,3.36,0,0,1-.41.77l-.13.24a.25.25,0,0,0,0,.17.21.21,0,0,0,.16,0A.8.8,0,0,0,6.68,6a4.54,4.54,0,0,0,.09-.51A.48.48,0,0,1,7,5.12c0,.12,0,.24.06.35a.27.27,0,0,1,0,.21A1.15,1.15,0,0,0,7,6.79a3.35,3.35,0,0,0,.45.72c.12.15.24.13.33,0A2.54,2.54,0,0,0,8,6.61a1.3,1.3,0,0,0-.36-1,.35.35,0,0,1-.1-.22C7.48,5.25,7.45,5.15,7.43,5Zm.47,8.5h0c0,.21,0,.42.07.63a4.22,4.22,0,0,0,.17.86,1.14,1.14,0,0,0,.43.58.48.48,0,0,0,.23.07A.17.17,0,0,0,9,15.4a3.28,3.28,0,0,0-.2-.31A4.58,4.58,0,0,1,8,13.4.62.62,0,0,1,8.08,13l0,.06c.06.24.12.48.19.71a2,2,0,0,0,.47.92.44.44,0,0,0,.37.19c.15,0,.23-.12.17-.27a.24.24,0,0,0-.06-.11A3.43,3.43,0,0,0,9,14.15,6.22,6.22,0,0,1,8.25,13a.9.9,0,0,1-.12-.6c0-.11,0-.21.07-.32.09.26.16.51.24.76a2.52,2.52,0,0,0,.49.93,1,1,0,0,0,.38.28A.23.23,0,0,0,9.55,14a.16.16,0,0,0,0-.2c-.12-.13-.25-.27-.38-.39a2.09,2.09,0,0,1-.52-.63c-.13-.25-.24-.5-.34-.75a.5.5,0,0,1,0-.23c0-.3,0-.59,0-.88l0,.06c.08.19.16.39.23.59s.11.34.18.51a.39.39,0,0,0,.32.28.17.17,0,0,0,.19-.05.18.18,0,0,0,0-.2.18.18,0,0,0-.09-.1.76.76,0,0,1-.27-.32l-.5-1a1.92,1.92,0,0,1-.15-.57l-.09-.71c0-.1,0-.2,0-.3s0,0,.06.06c.17.36.35.73.53,1.09a1.32,1.32,0,0,0,.27.42.41.41,0,0,0,.21.1c.13,0,.2-.09.15-.21a.53.53,0,0,0-.11-.14,1.42,1.42,0,0,1-.39-.42c-.07-.14-.16-.28-.23-.43L7.93,8.19A.53.53,0,0,0,7.82,8a.08.08,0,0,0-.15.07.47.47,0,0,0,0,.16c0,.12.08.24.11.36a.88.88,0,0,1-.37.86,1.37,1.37,0,0,0-.2.13.14.14,0,0,0,0,.22.18.18,0,0,0,.3,0,4.68,4.68,0,0,0,.27-.4,2.06,2.06,0,0,0,.12-.26A1.22,1.22,0,0,1,8,9.44a1.18,1.18,0,0,1-.07.74,6.09,6.09,0,0,1-.52.89.58.58,0,0,1-.31.22l-.1,0a.2.2,0,0,0-.1.25.21.21,0,0,0,.22.13.68.68,0,0,0,.24-.12,1,1,0,0,0,.21-.25c.12-.21.23-.43.34-.65s.1-.2.15-.3a.32.32,0,0,1,0,.13c0,.26,0,.51,0,.76a.54.54,0,0,1-.13.43,4.27,4.27,0,0,1-.47.48,1.43,1.43,0,0,1-1.08.38,1.54,1.54,0,0,0-.37,0c-.12,0-.15.13-.08.24a.34.34,0,0,0,.28.14,1.31,1.31,0,0,0,1.19-.47c.2-.22.37-.46.56-.7a.08.08,0,0,1,0,0H8l-.12.65a.09.09,0,0,1,0,.06A3,3,0,0,1,7.1,13c-.33.14-.67.24-1,.36a4.28,4.28,0,0,0-.46.17c-.1,0-.1.12,0,.18a.85.85,0,0,0,.26.11,1.21,1.21,0,0,0,.77-.13c.18-.09.34-.21.51-.3s.27-.29.48-.34l0,0,.06,0c0,.1,0,.15-.06.2l-.15.15c-.1.09-.19.2-.3.29a4,4,0,0,1-.94.48l-.64.26a.16.16,0,0,0-.12.15c0,.07.07.11.14.14l.08,0a1.67,1.67,0,0,0,.32,0,1.62,1.62,0,0,0,.71-.34,4.9,4.9,0,0,0,.75-.76l.07-.07h0a.47.47,0,0,1,0,.17,1.57,1.57,0,0,1-.19.33,3.56,3.56,0,0,1-1,.9l-.77.44-.06.06c0,.13,0,.2.16.2a2,2,0,0,0,.42-.06,1.57,1.57,0,0,0,.64-.44L7,14.91a.05.05,0,0,1,.09,0,.51.51,0,0,1-.17.4.88.88,0,0,0-.43.5,5.71,5.71,0,0,0-.19.71.62.62,0,0,0,0,.4.29.29,0,0,0,.41.16A1,1,0,0,0,7,16.91a1.78,1.78,0,0,0,.41-.78.89.89,0,0,0,0-.6.58.58,0,0,1,0-.14.25.25,0,0,1,.14-.31c.08,0,.12,0,.13.06a2.35,2.35,0,0,1,.05.37,1.5,1.5,0,0,0,.2.75.69.69,0,0,0,.28.28.17.17,0,0,0,.24-.2c-.06-.19-.11-.37-.18-.55a6.49,6.49,0,0,1-.39-1.62A1.58,1.58,0,0,1,7.9,13.52ZM6.51,4c-.1,0-.12.1-.15.17a4.76,4.76,0,0,1-.82,1.3.33.33,0,0,0-.06.1s0,.11,0,.14a.17.17,0,0,0,.14,0,1.12,1.12,0,0,0,.76-.64c.13-.32.22-.65.32-1a.5.5,0,0,0-.06-.43l-.07-.08C6.53,3.76,6.45,3.87,6.51,4Zm.72-.38s0,.06,0,.07a.45.45,0,0,0,.1.37,2.32,2.32,0,0,0,.74.69A1.05,1.05,0,0,0,9,4.88S9,4.84,9,4.79,9,4.66,8.9,4.63a8.8,8.8,0,0,1-1.22-.71,1.84,1.84,0,0,0-.25-.09l-.1,0,.12-.05ZM7.12,2.46l0,0,.08.12a1.35,1.35,0,0,0,1.53.3.28.28,0,0,0,.1-.09c0-.06,0-.11-.05-.12l-.29-.06-.78-.09ZM5.23,3.92a1.32,1.32,0,0,0,.44-.14,1.06,1.06,0,0,0,.53-.66.3.3,0,0,0,0-.13S6.1,3,6.07,3l-.49.34a3.84,3.84,0,0,1-.35.18A2.5,2.5,0,0,0,5,3.62c-.1.06-.1.16,0,.21A1.14,1.14,0,0,0,5.23,3.92Z"/><path class="cls-1" d="M8.92,1.65l.22.2a9.66,9.66,0,0,1,1.15,1.24.25.25,0,0,1,.06.17c0,.34.07.69.1,1,0,.12,0,.24.06.36a.77.77,0,0,0,.08.19c0,.06.09,0,.1,0s0-.26,0-.39a2.13,2.13,0,0,0,0-.25h0a3.62,3.62,0,0,0,.13.47,1,1,0,0,1-.19.91,1.73,1.73,0,0,0-.28.6.7.7,0,0,0,0,.25.17.17,0,0,0,.1.1.17.17,0,0,0,.13-.07,4.4,4.4,0,0,0,.21-.5,3,3,0,0,0,.1-.32.48.48,0,0,0,0-.12.57.57,0,0,1,0-.18.8.8,0,0,1,0,.57c-.12.26-.23.52-.33.79a1.43,1.43,0,0,0-.06.37.12.12,0,0,0,.11.15.15.15,0,0,0,.17-.11c.07-.23.14-.46.19-.69s0-.28.06-.42c0,.13.09.26.13.4s0,0,0,.06c-.11.28-.23.56-.33.84a4.58,4.58,0,0,0-.14.53.4.4,0,0,0,0,.18s.06,0,.11,0a.27.27,0,0,0,.16-.21,3.86,3.86,0,0,1,.23-.87l0,0a2.47,2.47,0,0,1,.05.38c0,.18,0,.36,0,.54A1.41,1.41,0,0,0,11.78,9s0,0,.06.05.17.06.24-.05a.88.88,0,0,0,.13-.69A1.85,1.85,0,0,0,12,7.61c-.08-.14-.16-.27-.23-.41a.16.16,0,0,1,0-.19.76.76,0,0,1,.08.11c.07.08.14.15.21.24l.19.28.19.26s.09.1.17.07a.2.2,0,0,0,.09-.21.7.7,0,0,0-.06-.19A2.84,2.84,0,0,0,12.09,7a1.56,1.56,0,0,1-.16-.2.61.61,0,0,0-.2-.19.39.39,0,0,1-.08-.1,3.4,3.4,0,0,1-.07-.34,3.3,3.3,0,0,0,.22.3c.19.21.39.42.59.62a.37.37,0,0,0,.18.08c.06,0,.1,0,.09-.08a.63.63,0,0,0-.12-.31,3.59,3.59,0,0,0-.62-.55,3.16,3.16,0,0,1-.48-.55,3,3,0,0,1-.16-.37,1.36,1.36,0,0,1,0-.17l.19.14a.22.22,0,0,1,.06.15.6.6,0,0,0,.15.31c.17.2.35.39.54.58a.34.34,0,0,0,.12.09c.08,0,.13,0,.12-.07a.51.51,0,0,0-.06-.25,1.65,1.65,0,0,0-.44-.47l-.22-.19A1.1,1.1,0,0,1,11.41,5L11,4.11,11,4l0,0,.67,1h0l-.12-.08a.94.94,0,0,0-.06.15.14.14,0,0,0,0,.07l.39.39c.1.08.11.08.16,0,.06.08.12.15.17.23.33.43.65.86,1,1.28a2,2,0,0,1,.47.88c0,.17.09.34.14.51.1.34.21.67.3,1,.23.93.46,1.85.66,2.79a27.3,27.3,0,0,1,.52,3.38c.07.65.11,1.29.15,1.94.07,1,.05,2,.05,2.93,0,.31,0,.61,0,.92,0,.07,0,.09-.09.07a6.51,6.51,0,0,0-1.16-.11c-.32,0-.63.05-1,0a3.56,3.56,0,0,1-2.07-.66,6.22,6.22,0,0,1-.6-.54c-.14-.13-.27-.27-.4-.41a.12.12,0,0,1,0-.08c0-.36,0-.71.05-1.06l.06-1.37c0-.6.06-1.2.08-1.8,0-.82,0-1.64,0-2.46,0-.52,0-1,0-1.55s0-.88-.05-1.33c-.05-.85-.11-1.71-.18-2.56,0-.51-.09-1-.16-1.51a24.36,24.36,0,0,0-.45-2.41,11.77,11.77,0,0,0-.63-1.93s0,0,0,0ZM12.8,13.89c.14.21.27.42.41.62a2.49,2.49,0,0,0,.78.77,1.13,1.13,0,0,0,.53.16c.12,0,.22-.06.23-.13a.2.2,0,0,0-.13-.22,2.11,2.11,0,0,0-.34-.16,2.3,2.3,0,0,1-.7-.35c-.21-.18-.4-.4-.61-.6a.64.64,0,0,1-.23-.5.13.13,0,0,0,0-.06l-.09-.1s0,.08,0,.11a.8.8,0,0,1-.07.34l-.14.27a2.24,2.24,0,0,1-.45.61,2.11,2.11,0,0,1-.92.46.66.66,0,0,0-.15.05.2.2,0,0,0-.09.13.19.19,0,0,0,.09.11.5.5,0,0,0,.36,0,1.26,1.26,0,0,0,.8-.51,3.12,3.12,0,0,0,.42-.81c0-.09.07-.19.12-.29a.08.08,0,0,1,0,0l0,.58a.11.11,0,0,1,0,.06A3.18,3.18,0,0,1,11.11,16a2,2,0,0,0-.39.24.13.13,0,0,0,0,.23l.11.05a.84.84,0,0,0,.6-.09,2.24,2.24,0,0,0,.71-.66,3.24,3.24,0,0,0,.4-.84.36.36,0,0,1,0-.09h0l0,.47a.32.32,0,0,1-.07.23l-.19.26A5.6,5.6,0,0,1,11.32,17a4.08,4.08,0,0,0-.33.25.18.18,0,0,0-.07.2.18.18,0,0,0,.18.09.8.8,0,0,0,.43-.12,1.6,1.6,0,0,0,.69-.74,7.09,7.09,0,0,0,.38-1l0-.09c0,.16,0,.31,0,.46a.14.14,0,0,1,0,.06l-.15.36c-.06.14-.12.29-.19.43a4.38,4.38,0,0,1-.54.76c-.11.14-.21.29-.31.44a.34.34,0,0,0-.05.17.23.23,0,0,0,.36.14,1.07,1.07,0,0,0,.2-.23,4.9,4.9,0,0,0,.48-.94l.07-.16h0c.05.12.11.25.15.37a.07.07,0,0,1,0,.07.86.86,0,0,0-.23.39,1.59,1.59,0,0,0,.38,1.5l.12.1c.06,0,.11,0,.15,0a1.89,1.89,0,0,0,.19-.3,1.68,1.68,0,0,0,.12-.89,1,1,0,0,0-.34-.75c-.06-.05-.09-.09-.06-.16s0-.09,0-.12a.73.73,0,0,1,.13-.1l0,.06.19.35a1.91,1.91,0,0,0,.39.58.67.67,0,0,0,.42.2.19.19,0,0,0,.18-.09.18.18,0,0,0,0-.21l-.15-.18a6.22,6.22,0,0,1-1.06-1.54.89.89,0,0,1-.22-.56h0v-.42l0,0,.3.77a2.33,2.33,0,0,0,.82,1,.93.93,0,0,0,.42.18.21.21,0,0,0,.21-.1.19.19,0,0,0,0-.22L14.55,17l-.61-.49a7.66,7.66,0,0,1-.9-1,1,1,0,0,1-.15-.65l0,0c.1.18.21.36.32.54a2.74,2.74,0,0,0,1,.94.48.48,0,0,0,.35.08c.07,0,.13,0,.16-.11a.18.18,0,0,0-.06-.18,2.69,2.69,0,0,0-.28-.22,7.49,7.49,0,0,1-1.27-1A1.19,1.19,0,0,1,12.8,13.89ZM12.41,12l.09.21a6.15,6.15,0,0,0,.62,1.26.77.77,0,0,0,.54.42.45.45,0,0,0,.2,0,.1.1,0,0,0,.08-.12.09.09,0,0,0-.1-.1.47.47,0,0,1-.16,0,.79.79,0,0,1-.39-.33A6.78,6.78,0,0,1,12.6,12a5,5,0,0,1-.3-1.18l0,.07.47.7c.14.19.27.38.42.56a.35.35,0,0,0,.25.14.19.19,0,0,0,.16-.33l-.08-.05-.15-.06a.51.51,0,0,1-.31-.21c-.15-.21-.31-.42-.45-.65s-.31-.55-.47-.83a.71.71,0,0,0-.1-.14c-.07-.07-.15,0-.15.05a.62.62,0,0,0,0,.27.5.5,0,0,1,0,.32,1.09,1.09,0,0,1-.61.62l0,0c-.07,0-.15.09-.13.19s.11.12.19.13h0a.4.4,0,0,0,.35-.17A1.51,1.51,0,0,0,12,10.9a.69.69,0,0,1,0-.1l0,.1a2.89,2.89,0,0,1,.09,1.24,3.25,3.25,0,0,1-.33,1.14.66.66,0,0,1-.26.29.65.65,0,0,0-.16.13.17.17,0,0,0,0,.2c0,.06.11.06.18,0a.72.72,0,0,0,.38-.28,1.92,1.92,0,0,0,.3-.78C12.33,12.59,12.37,12.3,12.41,12Zm-2-7.18a1.2,1.2,0,0,0-.18.61.17.17,0,0,0,.15.17.11.11,0,0,0,.07,0l0-.06-.1-.09v0l.2.08.12-.4a.13.13,0,0,0,0-.06A.27.27,0,0,0,10.4,4.81Z"/><path class="cls-1" d="M18.11,15.42l.31.14a4.5,4.5,0,0,0,1.08.33,1.48,1.48,0,0,0,.88-.1.41.41,0,0,0,.11-.07.13.13,0,0,0,0-.23.94.94,0,0,0-.28-.06H19.3A2.43,2.43,0,0,1,17.71,15a.53.53,0,0,1-.13-.13l.32.11a3.3,3.3,0,0,0,1.16.21,1.71,1.71,0,0,0,.8-.19l.12-.1a.16.16,0,0,0,.05-.17.15.15,0,0,0-.14-.11,3.38,3.38,0,0,0-.45,0c-.31,0-.62.1-.93.13a2.62,2.62,0,0,1-1.11-.15l0,0-.45-.73,0,0,.22.12a.73.73,0,0,0,.43.09.27.27,0,0,0,.15,0,.15.15,0,0,0,.06-.11.12.12,0,0,0-.08-.09,2,2,0,0,0-.26,0,2.7,2.7,0,0,1-.41-.07.67.67,0,0,1-.41-.29c-.13-.18-.25-.37-.37-.55l0,0,.26.13a2.1,2.1,0,0,0,.92.21.67.67,0,0,0,.41-.11s.09-.07.06-.13a.16.16,0,0,0-.17-.11l-.38,0a1.78,1.78,0,0,1-.82-.14l-.25-.1a.79.79,0,0,1-.39-.33,5,5,0,0,1-.31-.56l.27.11a.67.67,0,0,0,.39.06.48.48,0,0,0,.19-.09.11.11,0,0,0,0-.15.18.18,0,0,0-.13-.08h-.27a.94.94,0,0,1-.44-.06.57.57,0,0,1-.36-.35c-.17-.46-.34-.93-.52-1.4s-.27-.67-.41-1c0-.09-.07-.19-.11-.28h0l.06.07a15.31,15.31,0,0,0,1.34,1.56c.57.59,1.17,1.12,1.78,1.66.38.35.76.7,1.13,1.06s1,1,1.5,1.44a27.24,27.24,0,0,1,2.67,3,.32.32,0,0,1,.05.23,10.4,10.4,0,0,1-.32,1.47,3.46,3.46,0,0,1-.76,1.26,4.87,4.87,0,0,1-1.34,1l-.07,0c-.08-.17-.15-.34-.22-.51-.22-.56-.43-1.12-.65-1.67l-.21-.52s0-.06,0-.1a.65.65,0,0,0,.06-.23,6.84,6.84,0,0,0-.12-.79,2.58,2.58,0,0,0-.54-1.07c-.2-.25-.4-.49-.59-.74a.31.31,0,0,1-.05-.1l.35.31a3,3,0,0,1,.54.72,2.52,2.52,0,0,0,.37.49,1.48,1.48,0,0,1,.23.38,1.56,1.56,0,0,0,.85.86,1.24,1.24,0,0,0,.38.09c.22,0,.34-.1.31-.32a2.19,2.19,0,0,0-.1-.34,1.56,1.56,0,0,0-.61-.73.92.92,0,0,0-.65-.1.2.2,0,0,1-.22-.14c0-.06,0-.12,0-.19l.38.06a5.4,5.4,0,0,0,.58.11,2.69,2.69,0,0,0,.49,0,.4.4,0,0,0,.17-.09.14.14,0,0,0,0-.25.81.81,0,0,0-.25-.08l-1-.13a3.46,3.46,0,0,1-1.25-.44c-.13-.08-.25-.18-.37-.27Zm.82-1.5h0a1,1,0,0,0-.24.05l-.41.18-.5.24c-.07,0-.06.06,0,.1l.12.06a1.37,1.37,0,0,0,1.17-.26.57.57,0,0,0,.11-.11q.1-.18-.09-.24Z"/><path class="cls-1" d="M12.54,22.57a2.52,2.52,0,0,0-.15-.24c-.11-.16-.2-.33-.32-.48a1.09,1.09,0,0,0-.84-.4,1.61,1.61,0,0,0-.49.06c-.16,0-.21,0-.27-.14s-.09-.35-.15-.52a3.38,3.38,0,0,0-.18-.44.58.58,0,0,0-.94-.14l-.06.05A2,2,0,0,1,9,20a1.45,1.45,0,0,0-.39-.69.92.92,0,0,0-1.19-.15c-.16.09-.3.2-.45.3l-.06,0c-.1-.12-.19-.24-.29-.35a1.2,1.2,0,0,0-.79-.46.94.94,0,0,0-.52.13,2.57,2.57,0,0,0-.63.51l0,.05c-.09-.12-.17-.23-.27-.34a2.35,2.35,0,0,0-.6-.48.72.72,0,0,0-.54-.06l-.13,0a1,1,0,0,1,0-.16,2.18,2.18,0,0,0-.32-.86c0-.06,0-.1,0-.13s.24-.15.36-.21a.59.59,0,0,0,.35-.43.79.79,0,0,0-.07-.37c0-.09-.09-.18-.13-.28s0-.13.06-.18l.19-.08a.61.61,0,0,0,.38-.39.52.52,0,0,0,0-.37c-.05-.14-.11-.28-.17-.42l-.06-.12L4,14.36a.67.67,0,0,0,.13-1L4,13.15s0-.08,0-.11l.21-.12a.64.64,0,0,0,.3-.78,1.42,1.42,0,0,0-.3-.5l-.06-.06.14-.11a.85.85,0,0,0,.37-.83,1.11,1.11,0,0,0-.33-.56L4.2,10a.92.92,0,0,0,.46-.8,1,1,0,0,0-.45-.78,2.61,2.61,0,0,0,.22-.27A.88.88,0,0,0,4.39,7l-.21-.23s0-.07,0-.11a2.49,2.49,0,0,0,.19-.3,1.1,1.1,0,0,0,0-1A.93.93,0,0,0,4,5l-.11-.08A2.4,2.4,0,0,0,4,4.71,1.09,1.09,0,0,0,3.6,3.32a2.9,2.9,0,0,0-.29-.19s-.05,0,0-.09a.93.93,0,0,0-.78-1.23l-.26,0,.08-.07.44-.28s.07,0,.1,0a4.61,4.61,0,0,1,.66.8,6.75,6.75,0,0,1,.93,2.41,14.42,14.42,0,0,1,.25,1.73q.08.76.12,1.53c0,.32,0,.64,0,1s0,.68,0,1c0,.69,0,1.39-.11,2.09a21.27,21.27,0,0,1-.53,3.16,14.14,14.14,0,0,1-.89,2.51c-.05.13-.1.26-.14.39a.19.19,0,0,0,.15.24c.22,0,.44.07.66.09l1.67.07a10.19,10.19,0,0,1,2.2.27A5,5,0,0,1,10.14,20c.28.27.55.55.84.81a3,3,0,0,0,1.81.75c.39,0,.79,0,1.19,0a5.53,5.53,0,0,1,1.41.12l.42.11a.53.53,0,0,1,.15.11s0,.08,0,.08l-.28,0a.87.87,0,0,0-.66.35l-.19.26a1.17,1.17,0,0,0-1.1-.74A1.31,1.31,0,0,0,12.54,22.57Z"/><path class="cls-1" d="M24,15.87a4.1,4.1,0,0,0-.41.26.91.91,0,0,0-.32.8,2.16,2.16,0,0,0,.32.92c.05.08.09.17.14.26a.08.08,0,0,1,0,.11,1.89,1.89,0,0,0-.21.09.86.86,0,0,0-.58,1.07,5.6,5.6,0,0,0,.17.54c0,.07.05.13.07.19s0,.1-.07.1l-.3,0a1,1,0,0,0-.83.59,1.76,1.76,0,0,0-.17.76v.07a0,0,0,0,0,0,0,1.5,1.5,0,0,0-.63-.11,1.36,1.36,0,0,0-.61.22l-.13-.29c.15-.09.3-.17.44-.27a4.8,4.8,0,0,0,1.53-1.51,3.65,3.65,0,0,0,.45-1.23c.12-.59.22-1.18.33-1.76a13.79,13.79,0,0,1,1-3.26,8.29,8.29,0,0,1,1.78-2.53l.26-.23a.42.42,0,0,1,.12,0,.2.2,0,0,1,0,.11,2.77,2.77,0,0,0-.07.7c0,.08,0,.06-.09.06s-.2,0-.3,0a1,1,0,0,0-.66.41,1.55,1.55,0,0,0-.32,1.08l0,.29c0,.05,0,.07-.05.08l-.07,0a1.06,1.06,0,0,0-.77.72,2.43,2.43,0,0,0-.14,1A2.13,2.13,0,0,0,24,15.87Z"/><path class="cls-1" d="M20.17,5.19v.25a.67.67,0,0,0,.44.67,3,3,0,0,0,.42.14s.07,0,.07.07a2.36,2.36,0,0,0,0,.28.7.7,0,0,0,.49.53L22,7.2c.14,0,.15,0,.15.18a.59.59,0,0,0,.1.41.65.65,0,0,0,.46.2l.18,0c.13,0,.18.08.21.21l0,.17a.39.39,0,0,0,.32.34,2.55,2.55,0,0,0,.39,0H24A1.67,1.67,0,0,0,24,9a.83.83,0,0,0,.81.53.26.26,0,0,1,.24.1c.07.09.16.17.24.26a1.21,1.21,0,0,0,.58.25,1.11,1.11,0,0,1,.43.15.24.24,0,0,1-.28.06A11.4,11.4,0,0,1,23.6,9.1a15.53,15.53,0,0,1-2-1.55,24.81,24.81,0,0,1-2.71-2.9c-.48-.58-1-1.15-1.46-1.71a9.8,9.8,0,0,0-1.54-1.41l0,0v0l.46.1.52.19c.06,0,.07.05.09.1a3.33,3.33,0,0,0,.16.4.79.79,0,0,0,.47.32,3.74,3.74,0,0,0,.45.12.08.08,0,0,1,.08.09,2.19,2.19,0,0,0,0,.36.81.81,0,0,0,.56.68l.44.16a.06.06,0,0,1,.05.08,1.9,1.9,0,0,0,0,.34.74.74,0,0,0,.54.66C19.87,5.13,20,5.15,20.17,5.19Z"/><path class="cls-1" d="M15.15,12.66c.09.15.19.3.27.46a.52.52,0,0,1,0,.37c0,.16,0,.31-.06.48a.46.46,0,0,0,.12.37l0,.05a.57.57,0,0,1,.13.62c0,.16-.06.31-.09.47a.72.72,0,0,0,.09.43l.11.2a.58.58,0,0,1,.06.51,3.37,3.37,0,0,0-.1.34.77.77,0,0,0,.1.59A.72.72,0,0,1,16,18a1.49,1.49,0,0,1-.09.3.9.9,0,0,0,0,.77,1.46,1.46,0,0,1,.07.19.51.51,0,0,1,0,.4l-.06.18a1,1,0,0,0,0,.83,1.63,1.63,0,0,1,.06.85q0,.09-.09.06h0c-.18-.05-.18-.08-.16-.26s0-.5,0-.75V18.88l-.06-1.61q0-.7-.09-1.41c-.06-.56-.13-1.11-.21-1.67s-.15-.95-.23-1.42c0,0,0-.07,0-.1Z"/><path class="cls-1" d="M15.06,12.21,14.25,9a.61.61,0,0,1,.07.17c.2.53.39,1.07.58,1.61.1.26.19.52.29.79a.11.11,0,0,1,0,.08A1.12,1.12,0,0,0,15.06,12.21Z"/><path class="cls-1" d="M18.69,17.38l-.45-1.06h0a1.92,1.92,0,0,1,.46,1.06Z"/><path d="M18.37,8.75a1.29,1.29,0,0,0,1.12.69A2.4,2.4,0,0,0,21,8.92a.42.42,0,0,1,.14-.09c.11-.05.2,0,.18.13a.41.41,0,0,1-.08.19,1.57,1.57,0,0,1-1,.47,4,4,0,0,1-1-.06h0a1,1,0,0,0,.74.32h.33c.27-.11.54-.21.8-.33a6.27,6.27,0,0,0,.58-.29L22,9.08s.06,0,.09,0,.09.29-.08.44a2.13,2.13,0,0,1-.82.42,3.5,3.5,0,0,1-1.07.09h-.27a3.23,3.23,0,0,0,1,.16,2.74,2.74,0,0,0,.57-.11c.33-.1.66-.23,1-.33l.27-.06c.13,0,.18.07.13.19a.76.76,0,0,1-.28.31,1.74,1.74,0,0,1-1.32.21h0c-.14-.12-.31-.08-.46-.09h-.32l.39.18a1,1,0,0,1,.17.1.39.39,0,0,0,.31.06.9.9,0,0,1,.23,0,12.45,12.45,0,0,0,1.37-.06h.33l.09,0c.12,0,.14.14.05.23a1.12,1.12,0,0,1-.6.26A2.63,2.63,0,0,1,21.52,11h-.05l.14.1.44.26a.09.09,0,0,0,.07,0,.94.94,0,0,1,1.09.55,1.52,1.52,0,0,1,.16.69c0,.13,0,.16-.16.16a1.17,1.17,0,0,1-.58-.15,1.51,1.51,0,0,1-.62-.43.74.74,0,0,1-.17-.37.14.14,0,0,0,0-.06,2.14,2.14,0,0,0-.48-.47l.17.33a2.6,2.6,0,0,1,.33,1,1.77,1.77,0,0,1,0,.46c0,.08,0,.2-.14.21s-.15-.1-.18-.18a4.51,4.51,0,0,1-.17-.52,7,7,0,0,0-.44-1.15,2.43,2.43,0,0,0-.92-1l-.2-.11c.08.13.16.24.22.36a2.08,2.08,0,0,1,.22,1.2,1.7,1.7,0,0,1-.17.66.32.32,0,0,1-.08.12.2.2,0,0,1-.12.06.15.15,0,0,1-.09-.1,2,2,0,0,1,0-.34c0-.3,0-.6,0-.9a3.72,3.72,0,0,0-.22-1.14.69.69,0,0,0-.27-.34,2.32,2.32,0,0,1-.62-.59c-.26-.32-.51-.65-.77-1l-.07-.09a.18.18,0,0,1,0,.06c.16.42.32.85.49,1.27,0,.08.1.15.14.23a.6.6,0,0,1,.08.16.23.23,0,0,1-.13.29.28.28,0,0,1-.31-.16.2.2,0,0,1,0-.21.13.13,0,0,0,0-.12c-.13-.36-.27-.72-.38-1.08s-.27-1-.4-1.48a.21.21,0,0,0,0-.06,1.94,1.94,0,0,0,0,.24c0,.41-.05.82-.07,1.23a.18.18,0,0,0,.06.15.26.26,0,1,1-.4.31.23.23,0,0,1,.08-.3A.19.19,0,0,0,17,8.65c0-.32,0-.64.06-1s.06-.55.1-.82a.19.19,0,0,1,0-.1s0-.08.06-.08a.27.27,0,0,1,.12.06.89.89,0,0,1,.08.17,1.16,1.16,0,0,0,.68.69.45.45,0,0,0,.39,0,.26.26,0,0,1,.31,0,.22.22,0,0,1,0,.23c0,.08-.09.09-.16.11a1,1,0,0,1-.55-.09,1.88,1.88,0,0,1-.54-.38l-.07,0a1.89,1.89,0,0,0,.31.82,1.13,1.13,0,0,0,.65.35,2.11,2.11,0,0,0,.83,0h.27a.33.33,0,0,1,.14,0c.11.07.12.19,0,.24a.61.61,0,0,1-.3.08,2.3,2.3,0,0,1-1-.22l-.06,0Z"/><path d="M14.24,3.59a1.6,1.6,0,0,0,.72.69,4,4,0,0,0,1.39.34c.19,0,.38,0,.56.06a.46.46,0,0,1,.16.07.09.09,0,0,1,0,.14.48.48,0,0,1-.17.12,2.32,2.32,0,0,1-.38.07,2.37,2.37,0,0,1-1.05-.17l-.21,0,0,0c.05.07.11.14.15.21a.34.34,0,0,0,.29.16.91.91,0,0,1,.75.54,1.73,1.73,0,0,1,.18.71,1.92,1.92,0,0,1,0,.24c0,.09-.06.12-.16.11a1.17,1.17,0,0,1-.66-.29,1.37,1.37,0,0,1-.53-1,.17.17,0,0,0,0-.12L14.93,5c0,.18.08.34.11.49A2.32,2.32,0,0,1,15,6.83a.52.52,0,0,1-.1.18s-.08.09-.14.06A.24.24,0,0,1,14.64,7c0-.14,0-.28,0-.43a5.64,5.64,0,0,0-.06-1.36,2.88,2.88,0,0,0-.83-1.49l0,0a.31.31,0,0,0,0,.1,2.88,2.88,0,0,1,.12.92,2,2,0,0,1-.34,1,.77.77,0,0,1-.18.18c-.11.07-.2,0-.21-.11a1.28,1.28,0,0,1,.09-.48l.22-.63a2.24,2.24,0,0,0,.1-.89c0-.2,0-.22-.09-.31a.29.29,0,0,0,0,.24s0,0,0,0a3.38,3.38,0,0,1-.22.75c-.08.13-.16.26-.25.39a.49.49,0,0,1-.13.12c-.09.06-.16.06-.2,0a.21.21,0,0,1,0-.23c.13-.24.27-.48.39-.73a1.25,1.25,0,0,0,.14-.91,1.41,1.41,0,0,0-.37-.63l0,.09.18.62a.29.29,0,0,1,0,.16c0,.06-.05.08-.11,0a.4.4,0,0,1-.13-.13c-.1-.16-.19-.34-.28-.51S12.17,2.24,12,2a1.82,1.82,0,0,1-.14-.39c-.05-.17,0-.22.16-.16a7.17,7.17,0,0,1,.69.3l1.08.63a.53.53,0,0,1,.14.12.1.1,0,0,1-.06.18.67.67,0,0,1-.2,0l-.41-.12a.82.82,0,0,0,.58.29,1.82,1.82,0,0,0,.77-.19l.62-.26a.31.31,0,0,1,.25,0,.11.11,0,0,1,.07.17.47.47,0,0,1-.11.13A1.55,1.55,0,0,1,14.39,3a.58.58,0,0,0-.32,0S14,3,14,3a.09.09,0,0,0-.07,0s0,0,0,.06l.2.07a2.44,2.44,0,0,0,1.23-.05A2.22,2.22,0,0,1,16.06,3a.59.59,0,0,1,.19,0c.1,0,.11.11,0,.18a.62.62,0,0,1-.17.11,1.86,1.86,0,0,1-.79.24,2.27,2.27,0,0,1-.93-.15.44.44,0,0,0-.16-.06.12.12,0,0,0-.08,0,.32.32,0,0,0,0,.09l.08.06a2.52,2.52,0,0,0,1.32.28c.32,0,.63,0,1,0a.27.27,0,0,1,.12,0c.11,0,.13.12.05.2a.53.53,0,0,1-.29.18,1.8,1.8,0,0,1-1.47-.15,1.94,1.94,0,0,1-.24-.15,3.5,3.5,0,0,1-.3-.24l-.14-.1Z"/><path d="M13.93,4,14,4.1a2.47,2.47,0,0,1,.42,1.34,1.77,1.77,0,0,1-.32,1s0,0,0,0-.17.06-.2-.07a1.87,1.87,0,0,1,0-.58c0-.28.1-.57.13-.86a2.61,2.61,0,0,0-.08-.88v0Z"/><path d="M20.35,11a.48.48,0,0,1,.14.09,2.47,2.47,0,0,1,.27.44,1.94,1.94,0,0,1,.1,1.44c0,.13-.11.2-.2.2s-.14-.11-.15-.24,0-.38,0-.57c0-.37-.09-.75-.14-1.13a1.36,1.36,0,0,1,0-.2Z"/><path d="M19.49,11.26a1.85,1.85,0,0,1-.13.7.48.48,0,0,1-.12.16c-.09.08-.2.05-.21-.07a2.71,2.71,0,0,1,0-.4c0-.19.06-.38.07-.57a5.62,5.62,0,0,0-.06-.56v-.21c0-.08.06-.1.12-.05a.57.57,0,0,1,.12.15,1.53,1.53,0,0,1,.17.55Z"/><path d="M7.9,13.52a1.58,1.58,0,0,0-.1.65,6.49,6.49,0,0,0,.39,1.62c.07.18.12.36.18.55a.17.17,0,0,1-.24.2.69.69,0,0,1-.28-.28,1.5,1.5,0,0,1-.2-.75,2.35,2.35,0,0,0-.05-.37c0-.09,0-.1-.13-.06a.25.25,0,0,0-.14.31.58.58,0,0,0,0,.14.89.89,0,0,1,0,.6,1.78,1.78,0,0,1-.41.78,1,1,0,0,1-.29.21A.29.29,0,0,1,6.31,17a.62.62,0,0,1,0-.4,5.71,5.71,0,0,1,.19-.71.88.88,0,0,1,.43-.5.51.51,0,0,0,.17-.4.05.05,0,0,0-.09,0l-.24.21a1.57,1.57,0,0,1-.64.44,2,2,0,0,1-.42.06c-.12,0-.18-.07-.16-.2l.06-.06.77-.44a3.56,3.56,0,0,0,1-.9,1.57,1.57,0,0,0,.19-.33.47.47,0,0,0,0-.17h0l-.07.07a4.9,4.9,0,0,1-.75.76,1.62,1.62,0,0,1-.71.34,1.67,1.67,0,0,1-.32,0l-.08,0c-.07,0-.13-.07-.14-.14a.16.16,0,0,1,.12-.15l.64-.26a4,4,0,0,0,.94-.48c.11-.09.2-.2.3-.29l.15-.15c.07-.05.08-.1.06-.2l-.06,0,0,0c-.21,0-.3.25-.48.34s-.33.21-.51.3a1.21,1.21,0,0,1-.77.13.85.85,0,0,1-.26-.11c-.09-.06-.09-.14,0-.18a4.28,4.28,0,0,1,.46-.17c.34-.12.68-.22,1-.36a3,3,0,0,0,.75-.52.09.09,0,0,0,0-.06L8,11.78H8a.08.08,0,0,0,0,0c-.19.24-.36.48-.56.7A1.31,1.31,0,0,1,6.19,13a.34.34,0,0,1-.28-.14c-.07-.11,0-.21.08-.24a1.54,1.54,0,0,1,.37,0,1.43,1.43,0,0,0,1.08-.38,4.27,4.27,0,0,0,.47-.48A.54.54,0,0,0,8,11.28c0-.25,0-.5,0-.76a.32.32,0,0,0,0-.13c0,.1-.09.2-.15.3s-.22.44-.34.65a1,1,0,0,1-.21.25.68.68,0,0,1-.24.12.21.21,0,0,1-.22-.13.2.2,0,0,1,.1-.25l.1,0a.58.58,0,0,0,.31-.22,6.09,6.09,0,0,0,.52-.89A1.18,1.18,0,0,0,8,9.44a1.22,1.22,0,0,0-.06-.26,2.06,2.06,0,0,1-.12.26,4.68,4.68,0,0,1-.27.4.18.18,0,0,1-.3,0,.14.14,0,0,1,0-.22,1.37,1.37,0,0,1,.2-.13.88.88,0,0,0,.37-.86c0-.12-.07-.24-.11-.36a.47.47,0,0,1,0-.16A.08.08,0,0,1,7.82,8a.53.53,0,0,1,.11.15l.65,1.32c.07.15.16.29.23.43a1.42,1.42,0,0,0,.39.42.53.53,0,0,1,.11.14c0,.12,0,.23-.15.21a.41.41,0,0,1-.21-.1,1.32,1.32,0,0,1-.27-.42c-.18-.36-.36-.73-.53-1.09,0,0,0,0-.06-.06s0,.2,0,.3l.09.71a1.92,1.92,0,0,0,.15.57l.5,1a.76.76,0,0,0,.27.32.18.18,0,0,1,.09.1.18.18,0,0,1,0,.2.17.17,0,0,1-.19.05A.39.39,0,0,1,8.71,12c-.07-.17-.12-.35-.18-.51s-.15-.4-.23-.59l0-.06c0,.29,0,.58,0,.88a.5.5,0,0,0,0,.23c.1.25.21.5.34.75a2.09,2.09,0,0,0,.52.63c.13.12.26.26.38.39a.16.16,0,0,1,0,.2.23.23,0,0,1-.24.07,1,1,0,0,1-.38-.28,2.52,2.52,0,0,1-.49-.93c-.08-.25-.15-.5-.24-.76,0,.11,0,.21-.07.32a.9.9,0,0,0,.12.6A6.22,6.22,0,0,0,9,14.15a3.43,3.43,0,0,1,.24.33.24.24,0,0,1,.06.11c.06.15,0,.25-.17.27a.44.44,0,0,1-.37-.19,2,2,0,0,1-.47-.92c-.07-.23-.13-.47-.19-.71l0-.06A.62.62,0,0,0,8,13.4a4.58,4.58,0,0,0,.78,1.69,3.28,3.28,0,0,1,.2.31.17.17,0,0,1-.15.26.48.48,0,0,1-.23-.07A1.14,1.14,0,0,1,8.16,15,4.22,4.22,0,0,1,8,14.15c0-.21,0-.42-.07-.63Z"/><path d="M6.51,4c-.06-.14,0-.25,0-.39l.07.08a.5.5,0,0,1,.06.43c-.1.33-.19.66-.32,1a1.12,1.12,0,0,1-.76.64.17.17,0,0,1-.14,0s0-.1,0-.14a.33.33,0,0,1,.06-.1,4.76,4.76,0,0,0,.82-1.3C6.39,4.11,6.41,4,6.51,4Z"/><path d="M7.23,3.63l.22.13-.12.05.1,0a1.84,1.84,0,0,1,.25.09,8.8,8.8,0,0,0,1.22.71c.07,0,.13.07.13.16s0,.07-.07.09a1.05,1.05,0,0,1-.88-.12,2.32,2.32,0,0,1-.74-.69.45.45,0,0,1-.1-.37S7.24,3.67,7.23,3.63Z"/><path d="M7.12,2.46l.57.09.78.09.29.06c.07,0,.09.06.05.12a.28.28,0,0,1-.1.09,1.35,1.35,0,0,1-1.53-.3L7.1,2.49Z"/><path d="M5.23,3.92A1.14,1.14,0,0,1,5,3.83c-.09-.05-.09-.15,0-.21a2.5,2.5,0,0,1,.25-.09,3.84,3.84,0,0,0,.35-.18L6.07,3s.07,0,.11,0a.3.3,0,0,1,0,.13,1.06,1.06,0,0,1-.53.66A1.32,1.32,0,0,1,5.23,3.92Z"/><path d="M12.8,13.89a1.19,1.19,0,0,0,.34,1,7.49,7.49,0,0,0,1.27,1,2.69,2.69,0,0,1,.28.22.18.18,0,0,1,.06.18c0,.07-.09.09-.16.11a.48.48,0,0,1-.35-.08,2.74,2.74,0,0,1-1-.94c-.11-.18-.22-.36-.32-.54l0,0a1,1,0,0,0,.15.65,7.66,7.66,0,0,0,.9,1l.61.49.11.11a.19.19,0,0,1,0,.22.21.21,0,0,1-.21.1.93.93,0,0,1-.42-.18,2.33,2.33,0,0,1-.82-1l-.3-.77,0,0v.42h0a.89.89,0,0,0,.22.56,6.22,6.22,0,0,0,1.06,1.54l.15.18a.18.18,0,0,1,0,.21.19.19,0,0,1-.18.09.67.67,0,0,1-.42-.2,1.91,1.91,0,0,1-.39-.58l-.19-.35,0-.06a.73.73,0,0,0-.13.1s0,.08,0,.12,0,.11.06.16a1,1,0,0,1,.34.75,1.68,1.68,0,0,1-.12.89,1.89,1.89,0,0,1-.19.3c0,.06-.09.06-.15,0l-.12-.1a1.59,1.59,0,0,1-.38-1.5.86.86,0,0,1,.23-.39.07.07,0,0,0,0-.07c0-.12-.1-.25-.15-.37h0l-.07.16a4.9,4.9,0,0,1-.48.94,1.07,1.07,0,0,1-.2.23.23.23,0,0,1-.36-.14.34.34,0,0,1,.05-.17c.1-.15.2-.3.31-.44a4.38,4.38,0,0,0,.54-.76c.07-.14.13-.29.19-.43l.15-.36a.14.14,0,0,0,0-.06c0-.15,0-.3,0-.46l0,.09a7.09,7.09,0,0,1-.38,1,1.6,1.6,0,0,1-.69.74.8.8,0,0,1-.43.12.18.18,0,0,1-.18-.09.18.18,0,0,1,.07-.2,4.08,4.08,0,0,1,.33-.25,5.6,5.6,0,0,0,1.07-1.21l.19-.26a.32.32,0,0,0,.07-.23l0-.47h0a.36.36,0,0,0,0,.09,3.24,3.24,0,0,1-.4.84,2.24,2.24,0,0,1-.71.66.84.84,0,0,1-.6.09l-.11-.05a.13.13,0,0,1,0-.23,2,2,0,0,1,.39-.24,3.18,3.18,0,0,0,1.47-1.45.11.11,0,0,0,0-.06l0-.58a.08.08,0,0,0,0,0c-.05.1-.08.2-.12.29a3.12,3.12,0,0,1-.42.81,1.26,1.26,0,0,1-.8.51.5.5,0,0,1-.36,0,.19.19,0,0,1-.09-.11.2.2,0,0,1,.09-.13.66.66,0,0,1,.15-.05,2.11,2.11,0,0,0,.92-.46,2.24,2.24,0,0,0,.45-.61l.14-.27a.8.8,0,0,0,.07-.34s0-.07,0-.11l.09.1a.13.13,0,0,1,0,.06A.64.64,0,0,0,13,14c.21.2.4.42.61.6a2.3,2.3,0,0,0,.7.35,2.11,2.11,0,0,1,.34.16.2.2,0,0,1,.13.22c0,.07-.11.12-.23.13a1.13,1.13,0,0,1-.53-.16,2.49,2.49,0,0,1-.78-.77C13.07,14.31,12.94,14.1,12.8,13.89Z"/><path d="M12.41,12c0,.31-.08.6-.13.9a1.92,1.92,0,0,1-.3.78.72.72,0,0,1-.38.28c-.07,0-.14,0-.18,0a.17.17,0,0,1,0-.2.65.65,0,0,1,.16-.13.66.66,0,0,0,.26-.29,3.25,3.25,0,0,0,.33-1.14,2.89,2.89,0,0,0-.09-1.24l0-.1a.69.69,0,0,0,0,.1,1.51,1.51,0,0,1-.31.57.4.4,0,0,1-.35.17h0c-.08,0-.17,0-.19-.13s.06-.14.13-.19l0,0a1.09,1.09,0,0,0,.61-.62.5.5,0,0,0,0-.32.62.62,0,0,1,0-.27c0-.09.08-.12.15-.05a.71.71,0,0,1,.1.14c.16.28.3.56.47.83s.3.44.45.65a.51.51,0,0,0,.31.21l.15.06.08.05a.19.19,0,0,1-.16.33.35.35,0,0,1-.25-.14c-.15-.18-.28-.37-.42-.56l-.47-.7,0-.07A5,5,0,0,0,12.6,12a6.78,6.78,0,0,0,.69,1.27.79.79,0,0,0,.39.33.47.47,0,0,0,.16,0,.09.09,0,0,1,.1.1.1.1,0,0,1-.08.12.45.45,0,0,1-.2,0,.77.77,0,0,1-.54-.42,6.15,6.15,0,0,1-.62-1.26Z"/><path d="M10.4,4.81a.27.27,0,0,1,.24.2.13.13,0,0,1,0,.06l-.12.4-.2-.08v0l.1.09,0,.06a.11.11,0,0,1-.07,0,.17.17,0,0,1-.15-.17A1.2,1.2,0,0,1,10.4,4.81Z"/><path d="M18.93,13.92l.15,0q.2.06.09.24a.57.57,0,0,1-.11.11,1.37,1.37,0,0,1-1.17.26l-.12-.06c-.05,0-.06-.07,0-.1l.5-.24.41-.18a1,1,0,0,1,.24-.05Z"/></svg>